Reglo-Carson.ufo
<glyph name="exclam" format="1">
  <advance width="360"/>
  <unicode hex="0021"/>
  <outline>
    <contour>
      <point x="222.938" y="14.9395" type="line"/>
      <point x="111.204" y="123.516" type="line"/>
      <point x="54" y="118.086" type="line"/>
      <point x="165.734" y="9.50977" type="line"/>
    </contour>
    <contour>
      <point x="263.78" y="32.9551" type="curve" smooth="yes"/>
      <point x="275.64" y="29.4824"/>
      <point x="292.032" y="34.2363"/>
      <point x="298.453" y="47.5254" type="curve" smooth="yes"/>
      <point x="304.26" y="61.2422"/>
      <point x="299.301" y="77.7773"/>
      <point x="286.013" y="84.1982" type="curve" smooth="yes"/>
      <point x="272.296" y="90.0039"/>
      <point x="256.108" y="84.6074"/>
      <point x="250.303" y="70.8906" type="curve" smooth="yes"/>
      <point x="243.881" y="57.6035"/>
      <point x="248.635" y="41.7109"/>
    </contour>
  </outline>
</glyph>
<glyph name="ampersand" format="1">
  <advance width="393"/>
  <unicode hex="0026"/>
  <outline>
    <contour>
      <point x="203.895" y="248.129" type="curve"/>
      <point x="212.85" y="211.121"/>
      <point x="203.215" y="152.63"/>
      <point x="209.646" y="117.684" type="curve"/>
      <point x="201.231" y="91.292"/>
      <point x="202.555" y="41.7266"/>
      <point x="197.84" y="10.457" type="curve" smooth="yes"/>
      <point x="198.554" y="-15.0176"/>
      <point x="200.534" y="-25.709"/>
      <point x="204.853" y="-9.56348" type="curve" smooth="yes"/>
      <point x="209.723" y="5.15332"/>
      <point x="212.097" y="37.1221"/>
      <point x="212.668" y="60.9434" type="curve"/>
      <point x="224.67" y="78.1748"/>
      <point x="283.05" y="92.8838"/>
      <point x="295.827" y="93.7334" type="curve"/>
      <point x="339.859" y="59.1465"/>
      <point x="356.853" y="9.09961"/>
      <point x="339.008" y="18.2559" type="curve" smooth="yes"/>
      <point x="318.887" y="23.8633"/>
      <point x="266.699" y="72.0352"/>
      <point x="221.02" y="127.877" type="curve" smooth="yes"/>
      <point x="161.241" y="180.842"/>
      <point x="119.302" y="176.23"/>
      <point x="104.912" y="164.475" type="curve"/>
      <point x="81.1523" y="160.457"/>
      <point x="61.1592" y="156.705"/>
      <point x="54.5674" y="157.807" type="curve" smooth="yes"/>
      <point x="37.498" y="188.738"/>
      <point x="54.6621" y="223.525"/>
      <point x="94.9326" y="236.787" type="curve"/>
      <point x="131.495" y="254.506"/>
      <point x="194.11" y="248.426"/>
      <point x="211.827" y="211.863" type="curve"/>
      <point x="209.75" y="215.442"/>
      <point x="167.412" y="201.355"/>
      <point x="166.97" y="206.844" type="curve"/>
      <point x="159.306" y="231.525"/>
      <point x="146.042" y="251.204"/>
      <point x="135.871" y="250.625" type="curve" smooth="yes"/>
      <point x="131.951" y="260.141"/>
      <point x="158.604" y="262.727"/>
      <point x="203.861" y="220.656" type="curve" smooth="yes"/>
      <point x="228.157" y="194.358"/>
      <point x="252.382" y="166.213"/>
      <point x="254.612" y="157.416" type="curve"/>
      <point x="243.182" y="141.004"/>
      <point x="238.62" y="152.149"/>
      <point x="219.248" y="151.018" type="curve"/>
      <point x="189.738" y="149.33"/>
      <point x="203.895" y="248.129"/>
    </contour>
  </outline>
</glyph>
<glyph name="parenleft" format="1">
  <advance width="368"/>
  <unicode hex="0028"/>
  <outline>
    <contour>
      <point x="225.385" y="236.158" type="line"/>
      <point x="193.236" y="190"/>
      <point x="133.575" y="162.611"/>
      <point x="110.531" y="154.896" type="curve"/>
      <point x="78.9824" y="139.608"/>
      <point x="46.6201" y="115.161"/>
      <point x="61.9082" y="83.6113" type="curve"/>
      <point x="80.8633" y="88.0801"/>
      <point x="196.625" y="-21.5801"/>
      <point x="228.202" y="23.7578" type="curve"/>
      <point x="243.49" y="-7.79199"/>
      <point x="249.997" y="-66.3506"/>
      <point x="313.123" y="-5.72461" type="curve"/>
      <point x="313.123" y="-5.72461"/>
      <point x="294.52" y="-44.7754"/>
      <point x="326.097" y="0.5625" type="curve"/>
      <point x="326.097" y="0.5625"/>
      <point x="275.945" y="-6.44434"/>
      <point x="307.522" y="38.8926" type="curve"/>
      <point x="307.522" y="38.8926"/>
      <point x="262.972" y="-12.7305"/>
      <point x="294.549" y="32.6055" type="curve"/>
      <point x="283.639" y="27.3193"/>
      <point x="239.948" y="-14.0566"/>
      <point x="266.238" y="42.1895" type="curve"/>
      <point x="266.238" y="42.1895"/>
      <point x="169.078" y="132.19"/>
      <point x="200.655" y="177.527" type="curve"/>
      <point x="195.512" y="188.143"/>
      <point x="169.369" y="155.634"/>
      <point x="210.677" y="205.686" type="curve"/>
      <point x="210.677" y="205.686"/>
      <point x="192.073" y="166.636"/>
      <point x="223.65" y="211.973" type="curve"/>
    </contour>
  </outline>
</glyph>
<glyph name="parenright" format="1">
  <advance width="272"/>
  <unicode hex="0029"/>
  <outline>
    <contour>
      <point x="135.5" y="30.4629" type="line"/>
      <point x="103.352" y="-15.6953"/>
      <point x="118.319" y="-105.135"/>
      <point x="119.073" y="-129.423" type="curve"/>
      <point x="151.178" y="-136.504" type="line"/>
      <point x="180.643" y="-101.745"/>
      <point x="200.552" y="-7.69238"/>
      <point x="216.841" y="69.1943" type="curve"/>
      <point x="216.841" y="69.1943"/>
      <point x="119.681" y="159.195"/>
      <point x="151.258" y="204.533" type="curve"/>
      <point x="135.969" y="236.082"/>
      <point x="66.3086" y="203.967"/>
      <point x="66.042" y="233.872" type="curve"/>
      <point x="66.042" y="233.872"/>
      <point x="21.7861" y="182.391"/>
      <point x="53.3633" y="227.729" type="curve"/>
      <point x="53.3633" y="227.729"/>
      <point x="40.3604" y="144.061"/>
      <point x="71.9375" y="189.396" type="curve"/>
      <point x="71.9375" y="189.396"/>
      <point x="53.0391" y="150.204"/>
      <point x="84.6162" y="195.541" type="curve"/>
      <point x="94.6416" y="200.398"/>
      <point x="76.2051" y="151.235"/>
      <point x="112.927" y="185.958" type="curve"/>
      <point x="112.927" y="185.958"/>
      <point x="146.933" y="5.28223"/>
      <point x="178.51" y="50.6191" type="curve"/>
      <point x="183.653" y="40.0049"/>
      <point x="147.821" y="-17.5889"/>
      <point x="168.488" y="22.4609" type="curve"/>
    </contour>
  </outline>
</glyph>
<glyph name="comma" format="1">
  <advance width="184"/>
  <unicode hex="002C"/>
  <outline>
    <contour>
      <point x="88.1797" y="-29.6416" type="curve"/>
      <point x="93.3242" y="-22.2559"/>
      <point x="131.544" y="6.62305"/>
      <point x="121.082" y="13.9102" type="curve"/>
      <point x="118.62" y="15.625"/>
      <point x="105.797" y="105.817"/>
      <point x="103.709" y="105.443" type="curve"/>
      <point x="64" y="74.9443" type="line"/>
      <point x="66.5547" y="94.7969"/>
      <point x="82.6074" y="-37.6426"/>
    </contour>
  </outline>
</glyph>
<glyph name="hyphen" format="1">
  <advance width="308"/>
  <unicode hex="002D"/>
  <outline>
    <contour>
      <point x="253.47" y="87.377" type="line"/>
      <point x="170.418" y="170.422" type="line"/>
      <point x="53" y="102.242" type="line"/>
      <point x="136.053" y="19.1992" type="line"/>
    </contour>
  </outline>
</glyph>
<glyph name="period" format="1">
  <advance width="182"/>
  <unicode hex="002E"/>
  <outline>
    <contour>
      <point x="81.001" y="22.7588" type="curve" smooth="yes"/>
      <point x="94.2891" y="16.3379"/>
      <point x="110.387" y="20.9492"/>
      <point x="117.104" y="34.3789" type="curve" smooth="yes"/>
      <point x="122.909" y="48.0957"/>
      <point x="117.95" y="64.6318"/>
      <point x="104.662" y="71.0527" type="curve" smooth="yes"/>
      <point x="90.9453" y="76.8594"/>
      <point x="74.7578" y="71.4629"/>
      <point x="68.9521" y="57.7461" type="curve" smooth="yes"/>
      <point x="62.2354" y="44.3145"/>
      <point x="67.2842" y="28.5645"/>
    </contour>
  </outline>
</glyph>
<glyph name="slash" format="1">
  <advance width="363"/>
  <unicode hex="002F"/>
  <outline>
    <contour>
      <point x="300.418" y="32.0059" type="line"/>
      <point x="262.536" y="306.217" type="line"/>
      <point x="63" y="169.64" type="line"/>
      <point x="100.883" y="-104.572" type="line"/>
    </contour>
  </outline>
</glyph>
<glyph name="zero" format="1">
  <advance width="292"/>
  <unicode hex="0030"/>
  <outline>
    <contour>
      <point x="113.313" y="115.949" type="curve"/>
      <point x="76.8057" y="150.99"/>
      <point x="56.3135" y="187.936"/>
      <point x="70.7188" y="222.642" type="curve" smooth="yes"/>
      <point x="85.4102" y="257.758"/>
      <point x="108.416" y="247.76"/>
      <point x="144.485" y="212.871" type="curve"/>
      <point x="172.591" y="193.297"/>
      <point x="137.59" y="146.854"/>
      <point x="106.584" y="102.338" type="curve"/>
      <point x="59.7188" y="97.0488"/>
      <point x="135.069" y="227.189"/>
      <point x="139.741" y="199.962" type="curve" smooth="yes"/>
      <point x="146.86" y="175.687"/>
      <point x="250.788" y="246.855"/>
      <point x="237.5" y="165.777" type="curve"/>
      <point x="208.352" y="123.928"/>
      <point x="141.418" y="96.375"/>
    </contour>
    <contour>
      <point x="52.2969" y="-35.8105" type="curve"/>
      <point x="91.2744" y="-62.959"/>
      <point x="91.1104" y="37.2539"/>
      <point x="126.688" y="88.334" type="curve"/>
      <point x="162.838" y="140.236"/>
      <point x="199.487" y="199.545"/>
      <point x="156.202" y="229.693" type="curve"/>
      <point x="118.045" y="256.27"/>
      <point x="116.647" y="157.754"/>
      <point x="80.498" y="105.852" type="curve"/>
      <point x="53.6455" y="37.5176"/>
      <point x="142.472" y="136.771"/>
      <point x="120.771" y="91.8701" type="curve" smooth="yes"/>
      <point x="100.23" y="48.0762"/>
      <point x="178.35" y="170.177"/>
      <point x="135.342" y="132.428" type="curve"/>
      <point x="99.7637" y="81.3467"/>
      <point x="209.527" y="202.762"/>
      <point x="173.378" y="150.859" type="curve"/>
      <point x="155.089" y="64.1016"/>
      <point x="211.618" y="123.311"/>
      <point x="139.202" y="53.834" type="curve" smooth="yes"/>
      <point x="67.9473" y="-14.5361"/>
      <point x="30.1973" y="-44.0547"/>
    </contour>
  </outline>
</glyph>
<glyph name="one" format="1">
  <advance width="331"/>
  <unicode hex="0031"/>
  <outline>
    <contour>
      <point x="151.626" y="-2.97266" type="line"/>
      <point x="87.0762" y="-12.6895" type="line"/>
      <point x="106.365" y="320.506" type="line"/>
      <point x="40" y="266.781" type="line"/>
      <point x="58.5742" y="228.451" type="line"/>
      <point x="104.867" y="250.883" type="line"/>
      <point x="173.594" y="109.059" type="line"/>
      <point x="127.301" y="86.625" type="line"/>
      <point x="145.876" y="48.2949" type="line"/>
      <point x="276.791" y="111.734" type="line"/>
    </contour>
  </outline>
</glyph>
<glyph name="two" format="1">
  <advance width="494"/>
  <unicode hex="0032"/>
  <outline>
    <contour>
      <point x="298.893" y="121.594" type="curve"/>
      <point x="263.271" y="133.762"/>
      <point x="189.801" y="148.315"/>
      <point x="118.044" y="155.459" type="curve" smooth="yes"/>
      <point x="53.1719" y="157.459"/>
      <point x="31.0781" y="146.214"/>
      <point x="64.3691" y="132.013" type="curve"/>
      <point x="87.374" y="165.041"/>
      <point x="151.828" y="179.131"/>
      <point x="178.996" y="174.832" type="curve"/>
      <point x="171.852" y="189.574"/>
      <point x="178.539" y="208.336"/>
      <point x="193.281" y="215.479" type="curve"/>
      <point x="207.729" y="222.48"/>
      <point x="238.731" y="213.904"/>
      <point x="245.875" y="199.162" type="curve"/>
      <point x="278.19" y="175.254"/>
      <point x="286.914" y="152.958"/>
      <point x="298.618" y="159.111" type="curve" smooth="yes"/>
      <point x="264.452" y="116.715"/>
      <point x="261.415" y="76.1426"/>
      <point x="278.847" y="43.6709" type="curve"/>
      <point x="248.895" y="64.5312"/>
      <point x="232.306" y="56.5762"/>
      <point x="202.149" y="77.5801" type="curve"/>
      <point x="346.094" y="158.885" type="line"/>
      <point x="440.411" y="118.783" type="line"/>
      <point x="349.338" y="73.5625" type="line"/>
      <point x="328.334" y="82.9062"/>
      <point x="338.242" y="102.573"/>
      <point x="331.682" y="104.807" type="curve"/>
      <point x="344.06" y="122.092"/>
      <point x="322.325" y="73.2373"/>
    </contour>
  </outline>
</glyph>
<glyph name="three" format="1">
  <advance width="314"/>
  <unicode hex="0033"/>
  <outline>
    <contour>
      <point x="183.973" y="16.5938" type="line"/>
      <point x="166.068" y="-7.80078"/>
      <point x="152.885" y="-0.442383"/>
      <point x="117.395" y="24.2764" type="curve"/>
      <point x="101.174" y="49.8516"/>
      <point x="111.983" y="76.9023"/>
      <point x="133.845" y="83.7891" type="curve" smooth="yes"/>
      <point x="159.85" y="94.625"/>
      <point x="186.609" y="81.3359"/>
      <point x="206.373" y="49.0273" type="curve"/>
      <point x="187.326" y="36.2637"/>
      <point x="166.208" y="39.8477"/>
      <point x="155.92" y="48.0762" type="curve"/>
      <point x="128.966" y="66.2412"/>
      <point x="69.8594" y="42.334"/>
      <point x="60" y="28.1777" type="curve"/>
      <point x="64.4297" y="-26.9629"/>
      <point x="125.867" y="-63.6016"/>
      <point x="173.918" y="-53.8867" type="curve" smooth="yes"/>
      <point x="226.186" y="-47.457"/>
      <point x="264.008" y="-9.69141"/>
      <point x="262.282" y="45.3936" type="curve"/>
      <point x="253.995" y="62.4951"/>
      <point x="224.382" y="56.3037"/>
      <point x="224.186" y="81.1826" type="curve"/>
      <point x="229.086" y="98.1211"/>
      <point x="211.855" y="97.9297"/>
      <point x="219.561" y="133.555" type="curve"/>
      <point x="201.844" y="170.117"/>
      <point x="142.221" y="166.496"/>
      <point x="121.803" y="167.74" type="curve"/>
      <point x="85.2402" y="150.022"/>
      <point x="54.1943" y="87.4297"/>
      <point x="87.7598" y="69.6865" type="curve"/>
      <point x="87.7598" y="69.6865"/>
      <point x="113.191" y="70.8721"/>
      <point x="129.04" y="89.6904" type="curve"/>
      <point x="122.467" y="103.254"/>
      <point x="109.928" y="103.151"/>
      <point x="140.52" y="129.113" type="curve"/>
      <point x="156.441" y="136.83"/>
      <point x="157.665" y="112.084"/>
      <point x="181.229" y="114.98" type="curve"/>
      <point x="188.088" y="100.828"/>
      <point x="163.971" y="65.2598"/>
      <point x="167.579" y="77.7812" type="curve"/>
      <point x="167.579" y="77.7812"/>
      <point x="135.219" y="50.9629"/>
      <point x="151.067" y="69.7803" type="curve"/>
    </contour>
  </outline>
</glyph>
<glyph name="four" format="1">
  <advance width="402"/>
  <unicode hex="0034"/>
  <outline>
    <contour>
      <point x="82.0908" y="-13.9082" type="line"/>
      <point x="48" y="-8.62109" type="line"/>
      <point x="135.444" y="180.928" type="line"/>
      <point x="176.472" y="321.363" type="line"/>
      <point x="214.803" y="339.938" type="line"/>
    </contour>
    <contour>
      <point x="352.26" y="17.1953" type="line"/>
      <point x="199.868" y="78.0625" type="line"/>
      <point x="105.852" y="313.578" type="line"/>
      <point x="258.244" y="252.709" type="line"/>
    </contour>
    <contour>
      <point x="90.5518" y="6.09277" type="line"/>
      <point x="174.781" y="78.6094" type="line"/>
      <point x="327.725" y="130.189" type="line"/>
      <point x="283.932" y="114.992"/>
      <point x="251.635" y="62.3623"/>
      <point x="207.699" y="46.959" type="curve"/>
    </contour>
  </outline>
</glyph>
<glyph name="five" format="1">
  <advance width="349"/>
  <unicode hex="0035"/>
  <outline>
    <contour>
      <point x="230.229" y="112.539" type="line"/>
      <point x="255.995" y="140.6"/>
      <point x="261.383" y="154.738"/>
      <point x="253.757" y="150.283" type="curve" smooth="yes"/>
      <point x="235.319" y="153.553"/>
      <point x="203.523" y="133.175"/>
      <point x="171.483" y="101.476" type="curve" smooth="yes"/>
      <point x="140.291" y="71.2744"/>
      <point x="132.072" y="51.2305"/>
      <point x="145.095" y="52.123" type="curve"/>
      <point x="157.403" y="43.5498"/>
      <point x="143.732" y="19.4199"/>
      <point x="156.185" y="28.1133" type="curve"/>
      <point x="173.759" y="-8.1543"/>
      <point x="225.242" y="-38.623"/>
      <point x="261.509" y="-21.0479" type="curve"/>
      <point x="294.135" y="-5.20312"/>
      <point x="305.967" y="37.0195"/>
      <point x="284.608" y="71.3535" type="curve"/>
      <point x="266.891" y="107.915"/>
      <point x="223.697" y="123.166"/>
      <point x="187.431" y="105.591" type="curve"/>
      <point x="167.706" y="97.3926"/>
      <point x="114.521" y="92.6055"/>
      <point x="101.391" y="101.75" type="curve"/>
      <point x="71.3408" y="121.156"/>
      <point x="31.626" y="205.312"/>
      <point x="57.2012" y="242.033" type="curve"/>
      <point x="79.0625" y="273.42"/>
      <point x="202.299" y="320.438"/>
      <point x="235.532" y="297.291" type="curve"/>
      <point x="269.791" y="273.43"/>
      <point x="261.935" y="282.969"/>
      <point x="245.467" y="257.574" type="curve"/>
      <point x="245.467" y="257.574"/>
      <point x="139.275" y="223.529"/>
      <point x="122.807" y="198.136" type="curve"/>
      <point x="122.807" y="198.136"/>
      <point x="200.143" y="97.9219"/>
      <point x="183.675" y="72.5273" type="curve"/>
    </contour>
  </outline>
</glyph>
<glyph name="six" format="1">
  <advance width="286"/>
  <unicode hex="0036"/>
  <outline>
    <contour>
      <point x="116.342" y="105.963" type="curve"/>
      <point x="109.915" y="86.4131"/>
      <point x="129.382" y="69.5605"/>
      <point x="149.94" y="64.3027" type="curve" smooth="yes"/>
      <point x="170.491" y="59.3105"/>
      <point x="192.358" y="79.8545"/>
      <point x="195.093" y="101.977" type="curve" smooth="yes"/>
      <point x="203.224" y="120.535"/>
      <point x="184.035" y="140.849"/>
      <point x="165.021" y="146.295" type="curve"/>
      <point x="162.938" y="161.713"/>
      <point x="128.7" y="110.029"/>
      <point x="139.876" y="127.557" type="curve"/>
      <point x="148.409" y="148.119"/>
      <point x="109.336" y="131.957"/>
      <point x="126.588" y="154.978" type="curve"/>
      <point x="127.977" y="190.283"/>
      <point x="109.021" y="165.666"/>
      <point x="141.017" y="195.83" type="curve"/>
      <point x="163.997" y="223.394"/>
      <point x="157.329" y="173.419"/>
      <point x="181.726" y="181.697" type="curve"/>
      <point x="190.259" y="202.259"/>
      <point x="202.805" y="177.251"/>
      <point x="220.057" y="200.271" type="curve"/>
      <point x="210.872" y="257.396"/>
      <point x="141.313" y="229.01"/>
      <point x="122.299" y="234.456" type="curve"/>
      <point x="94.2695" y="237.301"/>
      <point x="53.2871" y="149.945"/>
      <point x="88.2568" y="136.402" type="curve"/>
      <point x="96.79" y="156.965"/>
      <point x="139.729" y="89.6738"/>
    </contour>
    <contour>
      <point x="205.825" y="61.1113" type="curve"/>
      <point x="190.424" y="36.3691"/>
      <point x="166.393" y="19.9844"/>
      <point x="132.366" y="26.2715" type="curve" smooth="yes"/>
      <point x="87.1982" y="39.2734"/>
      <point x="53.3057" y="76.4131"/>
      <point x="70.5938" y="126.736" type="curve" smooth="yes"/>
      <point x="86.8828" y="177.122"/>
      <point x="131.405" y="198.279"/>
      <point x="178.792" y="181.99" type="curve" smooth="yes"/>
      <point x="242.475" y="154.699"/>
      <point x="198.681" y="75.8535"/>
    </contour>
  </outline>
</glyph>
<glyph name="seven" format="1">
  <advance width="384"/>
  <unicode hex="0037"/>
  <outline>
    <contour>
      <point x="334.67" y="275.03" type="curve"/>
      <point x="325.892" y="262.864"/>
      <point x="184.113" y="188.146"/>
      <point x="169.394" y="177.072" type="curve"/>
      <point x="142.141" y="156.752"/>
      <point x="89.792" y="178.086"/>
      <point x="58.6631" y="168.387" type="curve"/>
      <point x="48.123" y="165.064"/>
      <point x="166.774" y="224.512"/>
      <point x="157.297" y="222.277" type="curve"/>
      <point x="185.812" y="202.417"/>
      <point x="334.67" y="275.03"/>
    </contour>
  </outline>
</glyph>
<glyph name="eight" format="1">
  <advance width="296"/>
  <unicode hex="0038"/>
  <outline>
    <contour>
      <point x="60.8711" y="-18.3994" type="curve" smooth="yes"/>
      <point x="53.8281" y="-37.5205"/>
      <point x="90.3496" y="-34.2607"/>
      <point x="138.628" y="0.27832" type="curve" smooth="yes"/>
      <point x="187.04" y="35.29"/>
      <point x="221.778" y="78.25"/>
      <point x="228.82" y="97.3711" type="curve" smooth="yes"/>
      <point x="244.535" y="97.7559"/>
      <point x="239.123" y="94.8164"/>
      <point x="209.505" y="81.3877" type="curve"/>
      <point x="202.688" y="81.5039"/>
      <point x="226.74" y="136.147"/>
      <point x="204.879" y="133.76" type="curve" smooth="yes"/>
      <point x="175.588" y="153.205"/>
      <point x="156.962" y="205.008"/>
      <point x="107.12" y="167.945" type="curve" smooth="yes"/>
      <point x="58.8418" y="133.406"/>
      <point x="69.0781" y="125.648"/>
      <point x="73.0791" y="69.8916" type="curve" smooth="yes"/>
      <point x="69.6494" y="35.9688"/>
      <point x="108.562" y="59.9473"/>
      <point x="111.023" y="33.665" type="curve"/>
      <point x="94.416" y="0.637695"/>
      <point x="76.5859" y="-18.0146"/>
    </contour>
    <contour>
      <point x="142.624" y="10.0723" type="curve" smooth="yes"/>
      <point x="184.91" y="-28.9512"/>
      <point x="210.408" y="-48.1484"/>
      <point x="215.098" y="-27.3926" type="curve" smooth="yes"/>
      <point x="218.34" y="-8.1543"/>
      <point x="192.271" y="25.626"/>
      <point x="146.211" y="67.668" type="curve" smooth="yes"/>
      <point x="104.521" y="106.862"/>
      <point x="77.0615" y="127.274"/>
      <point x="73.2295" y="107.75" type="curve" smooth="yes"/>
      <point x="68.835" y="87.1367"/>
      <point x="100.133" y="49.2393"/>
    </contour>
    <contour>
      <point x="197.491" y="238.349" type="curve" smooth="yes"/>
      <point x="231.304" y="205.031"/>
      <point x="232.619" y="166.422"/>
      <point x="205.159" y="141.02" type="curve" smooth="yes"/>
      <point x="179.254" y="118.409"/>
      <point x="137.445" y="122.218"/>
      <point x="103.489" y="155.83" type="curve" smooth="yes"/>
      <point x="69.0605" y="189.576"/>
      <point x="67.3447" y="227.703"/>
      <point x="95.2324" y="253.721" type="curve" smooth="yes"/>
      <point x="122.396" y="278.98"/>
      <point x="163.205" y="271.8"/>
    </contour>
  </outline>
</glyph>
<glyph name="nine" format="1">
  <advance width="287"/>
  <unicode hex="0039"/>
  <outline>
    <contour>
      <point x="169.857" y="131.686" type="curve"/>
      <point x="176.143" y="151.53"/>
      <point x="156.676" y="168.383"/>
      <point x="136.116" y="173.641" type="curve" smooth="yes"/>
      <point x="115.566" y="178.633"/>
      <point x="93.6992" y="158.089"/>
      <point x="91.1074" y="135.672" type="curve" smooth="yes"/>
      <point x="82.9766" y="117.113"/>
      <point x="102.164" y="96.7998"/>
      <point x="121.18" y="91.3535" type="curve"/>
      <point x="123.262" y="75.9355"/>
      <point x="157.356" y="127.914"/>
      <point x="146.181" y="110.387" type="curve"/>
      <point x="137.648" y="89.8242"/>
      <point x="176.721" y="105.986"/>
      <point x="159.469" y="82.9658" type="curve"/>
      <point x="158.223" y="47.3652"/>
      <point x="177.035" y="72.2773"/>
      <point x="145.041" y="42.1133" type="curve"/>
      <point x="122.06" y="14.5498"/>
      <point x="128.727" y="64.5234"/>
      <point x="104.331" y="56.2461" type="curve"/>
      <point x="95.7979" y="35.6836"/>
      <point x="83.252" y="60.6914"/>
      <point x="66" y="37.6719" type="curve"/>
      <point x="75.1846" y="-19.4531"/>
      <point x="144.743" y="8.93359"/>
      <point x="163.758" y="3.4873" type="curve"/>
      <point x="191.787" y="0.642578"/>
      <point x="232.77" y="87.998"/>
      <point x="197.8" y="101.541" type="curve"/>
      <point x="189.268" y="80.9785"/>
      <point x="146.471" y="147.975"/>
    </contour>
    <contour>
      <point x="80.375" y="176.537" type="curve"/>
      <point x="95.6328" y="201.573"/>
      <point x="119.664" y="217.959"/>
      <point x="153.69" y="211.672" type="curve" smooth="yes"/>
      <point x="198.858" y="198.67"/>
      <point x="232.752" y="161.53"/>
      <point x="215.605" y="110.912" type="curve" smooth="yes"/>
      <point x="199.174" y="60.8203"/>
      <point x="154.651" y="39.6641"/>
      <point x="107.265" y="55.9531" type="curve" smooth="yes"/>
      <point x="43.582" y="83.2441"/>
      <point x="87.5186" y="161.795"/>
    </contour>
  </outline>
</glyph>
<glyph name="colon" format="1">
  <advance width="267"/>
  <unicode hex="003A"/>
  <outline>
    <contour>
      <point x="80.8721" y="38.1611" type="curve" smooth="yes"/>
      <point x="94.1602" y="31.7402"/>
      <point x="110.553" y="36.4941"/>
      <point x="116.974" y="49.7812" type="curve" smooth="yes"/>
      <point x="123.074" y="63.6406"/>
      <point x="117.82" y="80.0332"/>
      <point x="104.532" y="86.4551" type="curve" smooth="yes"/>
      <point x="90.8154" y="92.2617"/>
      <point x="74.9229" y="87.0078"/>
      <point x="68.8223" y="73.1484" type="curve" smooth="yes"/>
      <point x="62.4004" y="59.8594"/>
      <point x="67.1553" y="43.9668"/>
    </contour>
    <contour>
      <point x="164.172" y="32.7607" type="curve" smooth="yes"/>
      <point x="177.46" y="26.3398"/>
      <point x="193.853" y="31.0938"/>
      <point x="200.274" y="44.3809" type="curve" smooth="yes"/>
      <point x="206.375" y="58.2412"/>
      <point x="201.121" y="74.6338"/>
      <point x="187.833" y="81.0547" type="curve" smooth="yes"/>
      <point x="174.116" y="86.8613"/>
      <point x="158.224" y="81.6074"/>
      <point x="152.123" y="67.748" type="curve" smooth="yes"/>
      <point x="145.701" y="54.459"/>
      <point x="150.455" y="38.5664"/>
    </contour>
  </outline>
</glyph>
<glyph name="semicolon" format="1">
  <advance width="281"/>
  <unicode hex="003B"/>
  <outline>
    <contour>
      <point x="77.1055" y="74.3105" type="curve" smooth="yes"/>
      <point x="90.3936" y="67.8887"/>
      <point x="106.491" y="72.5"/>
      <point x="112.913" y="85.7871" type="curve" smooth="yes"/>
      <point x="119.014" y="99.6475"/>
      <point x="113.76" y="116.04"/>
      <point x="100.472" y="122.461" type="curve" smooth="yes"/>
      <point x="86.7549" y="128.268"/>
      <point x="70.8623" y="123.014"/>
      <point x="64.7617" y="109.154" type="curve" smooth="yes"/>
      <point x="58.3398" y="95.8652"/>
      <point x="63.3887" y="80.1162"/>
    </contour>
    <contour>
      <point x="185.18" y="-20.4971" type="curve"/>
      <point x="190.323" y="-13.1113"/>
      <point x="228.838" y="15.9102"/>
      <point x="218.375" y="23.1973" type="curve"/>
      <point x="215.914" y="24.9121"/>
      <point x="199.938" y="120.859"/>
      <point x="197.85" y="120.485" type="curve"/>
      <point x="158.142" y="89.9863" type="line"/>
      <point x="160.695" y="109.838"/>
      <point x="179.606" y="-28.498"/>
    </contour>
  </outline>
</glyph>
<glyph name="question" format="1">
  <advance width="260"/>
  <unicode hex="003F"/>
  <outline>
    <contour>
      <point x="129.173" y="-63.4805" type="curve"/>
      <point x="118.556" y="-102.912"/>
      <point x="108.065" y="-110.51"/>
      <point x="88.5488" y="-79.5049" type="curve" smooth="yes"/>
      <point x="76.5078" y="-53.3574"/>
      <point x="73.1914" y="-3.84375"/>
      <point x="79.9062" y="31.2979" type="curve" smooth="yes"/>
      <point x="91.0508" y="72.7988"/>
      <point x="96.9834" y="67.2285"/>
      <point x="107.916" y="51.2988" type="curve"/>
      <point x="109.57" y="38.8281"/>
      <point x="121.886" y="-48.4434"/>
    </contour>
    <contour>
      <point x="184.15" y="216.574" type="curve" smooth="yes"/>
      <point x="197.724" y="209.562"/>
      <point x="188.893" y="201.002"/>
      <point x="164.944" y="199.572" type="curve"/>
      <point x="155.713" y="206.002"/>
      <point x="109.873" y="187.436"/>
      <point x="103.871" y="178.819" type="curve"/>
      <point x="97.4414" y="169.588"/>
      <point x="127.787" y="99.7217"/>
      <point x="137.019" y="93.292" type="curve"/>
      <point x="145.635" y="87.291"/>
      <point x="162.285" y="116.439"/>
      <point x="171.517" y="110.01" type="curve"/>
      <point x="180.133" y="104.008"/>
      <point x="153.855" y="133.836"/>
      <point x="163.087" y="127.406" type="curve"/>
      <point x="210.034" y="139.979"/>
      <point x="208.59" y="198.953"/>
      <point x="199.104" y="231.149" type="curve" smooth="yes"/>
      <point x="189.146" y="263.479"/>
      <point x="124.46" y="292.172"/>
      <point x="95.3604" y="267.167" type="curve" smooth="yes"/>
      <point x="65.3506" y="242.448"/>
      <point x="31.5371" y="208.184"/>
      <point x="59.3428" y="163.424" type="curve"/>
      <point x="67.959" y="157.422"/>
      <point x="91.3916" y="189.856"/>
      <point x="100.623" y="183.427" type="curve"/>
      <point x="101.666" y="193.053"/>
      <point x="90.7998" y="224.887"/>
      <point x="115.364" y="225.887" type="curve" smooth="yes"/>
      <point x="139.018" y="227.174"/>
      <point x="170.147" y="222.97"/>
    </contour>
  </outline>
</glyph>
<glyph name="at" format="1">
  <advance width="444"/>
  <unicode hex="0040"/>
  <outline>
    <contour>
      <point x="299.935" y="250.668" type="curve"/>
      <point x="310.574" y="255.445"/>
      <point x="372.075" y="157.249"/>
      <point x="382.537" y="149.962" type="curve"/>
      <point x="395.461" y="140.961"/>
      <point x="361.37" y="108.508"/>
      <point x="353.226" y="96.8145" type="curve"/>
      <point x="345.653" y="85.9424"/>
      <point x="285.998" y="182.853"/>
      <point x="273.679" y="187.473" type="curve"/>
      <point x="262.322" y="191.727"/>
      <point x="299.935" y="250.668"/>
    </contour>
    <contour>
      <point x="265.238" y="281.336" type="curve"/>
      <point x="269.828" y="300.74"/>
      <point x="266.564" y="297.982"/>
      <point x="257.516" y="277.121" type="curve" smooth="yes"/>
      <point x="277.841" y="237.543"/>
      <point x="270.007" y="174.252"/>
      <point x="250.004" y="116.531" type="curve"/>
      <point x="218.712" y="71.6045"/>
      <point x="134.914" y="44.1777"/>
      <point x="94.2949" y="72.4678" type="curve"/>
      <point x="43.1025" y="133.518"/>
      <point x="50.5059" y="219.954"/>
      <point x="119.534" y="281.738" type="curve" smooth="yes"/>
      <point x="183.009" y="330.59"/>
      <point x="252.358" y="330.158"/>
      <point x="291.939" y="277.806" type="curve"/>
      <point x="301.171" y="271.376"/>
      <point x="265.238" y="281.336"/>
    </contour>
  </outline>
</glyph>
<glyph name="A" format="1">
  <advance width="378"/>
  <unicode hex="0041"/>
  <outline>
    <contour>
      <point x="186.895" y="255.779" type="line"/>
      <point x="326.65" y="76.7285" type="line"/>
      <point x="281.321" y="44.0156"/>
      <point x="268.433" y="26.6689"/>
      <point x="222.961" y="-6.24805" type="curve"/>
      <point x="52" y="169.555" type="line"/>
    </contour>
    <contour>
      <point x="108.564" y="225.768" type="line"/>
      <point x="92.9639" y="28.8555" type="line"/>
      <point x="121.008" y="32.6602" type="line"/>
      <point x="136.608" y="229.572" type="line"/>
    </contour>
    <contour>
      <point x="61.3809" y="-17.6738" type="line"/>
      <point x="139.596" y="6.90234" type="line"/>
      <point x="134.023" y="58.9014" type="line"/>
      <point x="149.277" y="113.17"/>
      <point x="97.584" y="141.109"/>
      <point x="113.043" y="195.235" type="curve"/>
    </contour>
  </outline>
</glyph>
<glyph name="B" format="1">
  <advance width="336"/>
  <unicode hex="0042"/>
  <outline>
    <contour>
      <point x="117.404" y="-122.66" type="line"/>
      <point x="61.082" y="-58.0381" type="line"/>
      <point x="42.4141" y="-45.0352"/>
      <point x="94.0439" y="-4.12012"/>
      <point x="90.2412" y="10.1055" type="curve"/>
      <point x="102.01" y="27.8516"/>
      <point x="109.963" y="61.333"/>
      <point x="112.106" y="89.4102" type="curve"/>
      <point x="132.253" y="118.336"/>
      <point x="208.481" y="124.834"/>
      <point x="239.048" y="103.545" type="curve"/>
      <point x="256.479" y="67.5723"/>
      <point x="271.028" y="3.08008"/>
      <point x="234.762" y="-14.4941" type="curve"/>
    </contour>
    <contour>
      <point x="118.239" y="45.2266" type="line"/>
      <point x="70.582" y="100.102" type="line"/>
      <point x="38.1064" y="123.025"/>
      <point x="78.9482" y="179.071"/>
      <point x="101.095" y="210.869" type="curve"/>
      <point x="128.982" y="236.887"/>
      <point x="148.779" y="259.377"/>
      <point x="156.732" y="273.05" type="curve"/>
      <point x="172.177" y="272.041"/>
      <point x="226.51" y="279.472"/>
      <point x="241.69" y="268.898" type="curve"/>
      <point x="258.979" y="233.221"/>
      <point x="273.008" y="172.607"/>
      <point x="236.74" y="155.033" type="curve"/>
    </contour>
    <contour>
      <point x="146.245" y="64.6523" type="line"/>
      <point x="138.959" y="79.6904"/>
      <point x="101.495" y="99.3613"/>
      <point x="86.457" y="92.0742" type="curve"/>
      <point x="129.682" y="213.591" type="line"/>
      <point x="130.186" y="238.634" type="line"/>
      <point x="192.694" y="268.925" type="line"/>
      <point x="228.962" y="286.5"/>
      <point x="272.735" y="271.303"/>
      <point x="290.31" y="235.035" type="curve"/>
    </contour>
  </outline>
</glyph>
<glyph name="C" format="1">
  <advance width="261"/>
  <unicode hex="0043"/>
  <outline>
    <contour>
      <point x="119.104" y="257.301" type="curve"/>
      <point x="124.408" y="288.508"/>
      <point x="123.739" y="303.768"/>
      <point x="127.119" y="297.711" type="curve"/>
      <point x="131.688" y="291.546"/>
      <point x="145.698" y="266.073"/>
      <point x="169.459" y="239.757" type="curve"/>
      <point x="216.027" y="207.322"/>
      <point x="182.96" y="140.035"/>
      <point x="151.24" y="94.4932" type="curve"/>
      <point x="100.803" y="84.0762"/>
      <point x="63.0449" y="115.684"/>
      <point x="54" y="164.12" type="curve"/>
      <point x="71.3936" y="194.84"/>
      <point x="102.427" y="197.656"/>
      <point x="116.354" y="179.272" type="curve"/>
      <point x="112.998" y="195.014"/>
      <point x="119.104" y="257.301"/>
    </contour>
  </outline>
</glyph>
<glyph name="D" format="1">
  <advance width="387"/>
  <unicode hex="0044"/>
  <outline>
    <contour>
      <point x="299.17" y="207.604" type="line"/>
      <point x="291.445" y="222.793"/>
      <point x="242.021" y="250.599"/>
      <point x="226.983" y="243.312" type="curve"/>
      <point x="209.752" y="255.314"/>
      <point x="133.45" y="228.841"/>
      <point x="120.69" y="228.893" type="curve"/>
      <point x="100.273" y="227.574"/>
      <point x="60.7588" y="252.462"/>
      <point x="46.3271" y="231.742" type="curve"/>
      <point x="31.8965" y="211.022"/>
      <point x="89.0557" y="217.011"/>
      <point x="94.8975" y="197.404" type="curve"/>
      <point x="135.638" y="203.028"/>
      <point x="187.774" y="176.218"/>
      <point x="222.581" y="127.948" type="curve"/>
    </contour>
    <contour>
      <point x="195.769" y="-132.947" type="line"/>
      <point x="71.0186" y="98.6855" type="line"/>
      <point x="215.083" y="269.068" type="line"/>
      <point x="339.832" y="37.4355" type="line"/>
    </contour>
  </outline>
</glyph>
<glyph name="E" format="1">
  <advance width="494"/>
  <unicode hex="0045"/>
  <outline>
    <contour>
      <point x="267.512" y="101.504" type="line"/>
      <point x="58.7148" y="118.079" type="line"/>
      <point x="51" y="172.001" type="line"/>
      <point x="259.797" y="155.427" type="line"/>
    </contour>
    <contour>
      <point x="326.965" y="-48.5205" type="line"/>
      <point x="204.819" y="-8.37109" type="line"/>
      <point x="109.945" y="225.913" type="line"/>
      <point x="232.092" y="185.763" type="line"/>
    </contour>
    <contour>
      <point x="357.275" y="-80.3662" type="line"/>
      <point x="229.306" y="-120.088" type="line"/>
      <point x="316.464" y="70.0508" type="line"/>
      <point x="444.434" y="109.772" type="line"/>
    </contour>
    <contour>
      <point x="278.438" y="132.96" type="line"/>
      <point x="287.833" y="255.268" type="line"/>
      <point x="317.124" y="232.822" type="line"/>
      <point x="307.729" y="110.515" type="line"/>
    </contour>
  </outline>
</glyph>
<glyph name="F" format="1">
  <advance width="453"/>
  <unicode hex="0046"/>
  <outline>
    <contour>
      <point x="267.655" y="101.504" type="line"/>
      <point x="58.8584" y="118.079" type="line"/>
      <point x="51" y="171.796" type="line"/>
      <point x="259.797" y="155.222" type="line"/>
    </contour>
    <contour>
      <point x="327.395" y="-48.1104" type="line"/>
      <point x="205.248" y="-7.96094" type="line"/>
      <point x="110.088" y="225.913" type="line"/>
      <point x="232.234" y="185.763" type="line"/>
    </contour>
    <contour>
      <point x="186.373" y="-5.11328" type="line"/>
      <point x="276.596" y="60.8984" type="line"/>
      <point x="400.762" y="174.669" type="line"/>
      <point x="310.538" y="108.657" type="line"/>
    </contour>
  </outline>
</glyph>
<glyph name="G" format="1">
  <advance width="397"/>
  <unicode hex="0047"/>
  <outline>
    <contour>
      <point x="201.729" y="187.994" type="line"/>
      <point x="194.146" y="202.889"/>
      <point x="107.912" y="255.984"/>
      <point x="93.1689" y="248.84" type="curve"/>
      <point x="78.1309" y="241.554"/>
      <point x="82.0352" y="236.939"/>
      <point x="88.8945" y="222.786" type="curve"/>
      <point x="118.556" y="157.203" type="line"/>
      <point x="100.981" y="193.471"/>
      <point x="116.179" y="237.244"/>
      <point x="152.15" y="254.676" type="curve"/>
      <point x="188.418" y="272.25"/>
      <point x="232.191" y="257.053"/>
      <point x="249.766" y="220.785" type="curve"/>
    </contour>
    <contour>
      <point x="106.551" y="97.3857" type="line"/>
      <point x="46" y="197.379" type="line"/>
      <point x="132.76" y="285.766" type="line"/>
      <point x="193.311" y="185.771" type="line"/>
    </contour>
    <contour>
      <point x="104.119" y="121.015" type="curve"/>
      <point x="119.547" y="136.166"/>
      <point x="174.373" y="165.145"/>
      <point x="192.844" y="166.293" type="curve"/>
      <point x="219.45" y="152.968"/>
      <point x="255.285" y="141.178"/>
      <point x="286.35" y="136.605" type="curve"/>
      <point x="345.852" y="113.467"/>
      <point x="357.551" y="82.5586"/>
      <point x="318.688" y="51.7588" type="curve"/>
      <point x="285.967" y="4.78125"/>
      <point x="271.048" y="11.0449"/>
      <point x="228.378" y="40.7646" type="curve"/>
      <point x="226.936" y="17.9375"/>
      <point x="196.892" y="-9.09766"/>
      <point x="156.691" y="-8.69922" type="curve"/>
      <point x="117.096" y="-9.89844"/>
      <point x="121.551" y="85.043"/>
    </contour>
  </outline>
</glyph>
<glyph name="H" format="1">
  <advance width="428"/>
  <unicode hex="0048"/>
  <outline>
    <contour>
      <point x="276.779" y="-33.7012" type="line"/>
      <point x="138.017" y="18.0215" type="line"/>
      <point x="43" y="252.1" type="line"/>
      <point x="181.762" y="200.377" type="line"/>
    </contour>
    <contour>
      <point x="288.715" y="20.4326" type="line"/>
      <point x="144.233" y="-27.29" type="line"/>
      <point x="231.535" y="162.554" type="line"/>
      <point x="376.016" y="210.276" type="line"/>
    </contour>
    <contour>
      <point x="233.338" y="2.36328" type="line"/>
      <point x="176.429" y="-2.92383" type="line"/>
      <point x="176.286" y="367.371" type="line"/>
      <point x="233.195" y="372.658" type="line"/>
    </contour>
  </outline>
</glyph>
<glyph name="I" format="1">
  <advance width="205"/>
  <unicode hex="0049"/>
  <outline>
    <contour>
      <point x="130.348" y="-107.371" type="line"/>
      <point x="73.1426" y="-112.801" type="line"/>
      <point x="73" y="257.494" type="line"/>
      <point x="130.205" y="262.924" type="line"/>
    </contour>
  </outline>
</glyph>
<glyph name="J" format="1">
  <advance width="265"/>
  <unicode hex="004A"/>
  <outline>
    <contour>
      <point x="177.039" y="99.7793" type="curve"/>
      <point x="187.04" y="114.139"/>
      <point x="120.688" y="278.248"/>
      <point x="128.238" y="281.215" type="curve"/>
      <point x="135.708" y="283.629"/>
      <point x="104.816" y="262.614"/>
      <point x="111.792" y="257.756" type="curve"/>
      <point x="113.639" y="256.471"/>
      <point x="190.418" y="100.332"/>
      <point x="192.326" y="98.6982" type="curve"/>
      <point x="204.943" y="115.502" type="line"/>
      <point x="213.078" y="97.9629"/>
      <point x="205.09" y="82.8027"/>
      <point x="190.642" y="75.8008" type="curve"/>
      <point x="173.143" y="70.7285"/>
      <point x="152.349" y="78.7461"/>
      <point x="142.886" y="94.9082" type="curve"/>
      <point x="129.551" y="104.195"/>
      <point x="72.4043" y="91.4141"/>
      <point x="57" y="84.168" type="curve"/>
      <point x="64.4521" y="42.2412"/>
      <point x="97.0996" y="11.9434"/>
      <point x="123.803" y="15.5059" type="curve"/>
      <point x="159.48" y="32.7949"/>
      <point x="194.327" y="64.1016"/>
    </contour>
  </outline>
</glyph>
<glyph name="K" format="1">
  <advance width="356"/>
  <unicode hex="004B"/>
  <outline>
    <contour>
      <point x="313.608" y="44.4365" type="line"/>
      <point x="256.609" y="38.8643" type="line"/>
      <point x="45" y="105.544" type="line"/>
      <point x="102" y="111.116" type="line"/>
    </contour>
    <contour>
      <point x="217.648" y="156.297" type="line"/>
      <point x="199.898" y="16.9375" type="line"/>
      <point x="179.031" y="-20.0703" type="line"/>
      <point x="197.303" y="79.3975" type="line"/>
    </contour>
    <contour>
      <point x="166.914" y="77.2246" type="line"/>
      <point x="183.699" y="290.207" type="line"/>
      <point x="182.587" y="310.48"/>
      <point x="225.113" y="351.9"/>
      <point x="223.758" y="370.514" type="curve"/>
      <point x="179.248" y="239.181" type="line"/>
      <point x="181.693" y="192.387"/>
      <point x="178.428" y="136.588"/>
      <point x="181.016" y="90.001" type="curve"/>
      <point x="181.016" y="90.001"/>
      <point x="170.754" y="61.5078"/>
      <point x="173.343" y="14.9199" type="curve"/>
    </contour>
  </outline>
</glyph>
<glyph name="L" format="1">
  <advance width="390"/>
  <unicode hex="004C"/>
  <outline>
    <contour>
      <point x="271.558" y="24.0059" type="line"/>
      <point x="133.73" y="74.7285" type="line"/>
      <point x="39" y="309.218" type="line"/>
      <point x="176.826" y="258.494" type="line"/>
    </contour>
    <contour>
      <point x="250.684" y="-76.0801" type="line"/>
      <point x="119.765" y="-117.23" type="line"/>
      <point x="206.924" y="72.9082" type="line"/>
      <point x="337.842" y="114.059" type="line"/>
    </contour>
  </outline>
</glyph>
<glyph name="M" format="1">
  <advance width="512"/>
  <unicode hex="004D"/>
  <outline>
    <contour>
      <point x="347.08" y="88.3926" type="line"/>
      <point x="297.604" y="53.8164" type="line"/>
      <point x="44" y="176.557" type="line"/>
      <point x="64.0732" y="207.848" type="line"/>
    </contour>
    <contour>
      <point x="436.313" y="-54.0762" type="line"/>
      <point x="379.109" y="-59.5059" type="line"/>
      <point x="378.966" y="310.789" type="line"/>
      <point x="436.17" y="316.219" type="line"/>
    </contour>
    <contour>
      <point x="85.5352" y="206.133" type="line"/>
      <point x="182.866" y="91.2383" type="line"/>
      <point x="253.217" y="225.899" type="line"/>
      <point x="161.193" y="343.367" type="line"/>
    </contour>
    <contour>
      <point x="319.315" y="339.887" type="line"/>
      <point x="303.361" y="160.982" type="line"/>
      <point x="318.518" y="6.50781" type="line"/>
      <point x="322.073" y="161.186" type="line"/>
    </contour>
  </outline>
</glyph>
<glyph name="N" format="1">
  <advance width="413"/>
  <unicode hex="004E"/>
  <outline>
    <contour>
      <point x="251.102" y="-109.657" type="line"/>
      <point x="194.192" y="-114.943" type="line"/>
      <point x="194.05" y="255.352" type="line"/>
      <point x="250.959" y="260.638" type="line"/>
    </contour>
    <contour>
      <point x="352.065" y="155.17" type="curve"/>
      <point x="305.353" y="-57.6855" type="line"/>
      <point x="187.76" y="143.979" type="line"/>
      <point x="215.129" y="169.841" type="line"/>
      <point x="218.055" y="231.782"/>
      <point x="352.065" y="155.17"/>
    </contour>
    <contour>
      <point x="45" y="178.985" type="line"/>
      <point x="224.292" y="18.3652" type="line"/>
      <point x="291.988" y="151.741" type="line"/>
      <point x="112.697" y="312.361" type="line"/>
    </contour>
  </outline>
</glyph>
<glyph name="O" format="1">
  <advance width="315"/>
  <unicode hex="004F"/>
  <outline>
    <contour>
      <point x="120.212" y="126.039" type="curve"/>
      <point x="75.7041" y="166.652"/>
      <point x="54.9668" y="211.994"/>
      <point x="65.0859" y="240.545" type="curve" smooth="yes"/>
      <point x="75.6338" y="269.213"/>
      <point x="106.457" y="262.191"/>
      <point x="150.527" y="221.73" type="curve"/>
      <point x="186.223" y="196.868"/>
      <point x="149.69" y="139.916"/>
      <point x="124.543" y="103.811" type="curve"/>
      <point x="81.9639" y="104.677"/>
      <point x="147.17" y="220.251"/>
      <point x="157.7" y="201.435" type="curve" smooth="yes"/>
      <point x="169.105" y="183.313"/>
      <point x="262.889" y="239.918"/>
      <point x="255.458" y="167.25" type="curve"/>
      <point x="230.597" y="131.555"/>
      <point x="155.907" y="101.178"/>
    </contour>
    <contour>
      <point x="59.1953" y="-25.7207" type="curve"/>
      <point x="105.354" y="-57.8691"/>
      <point x="113.623" y="44.3896"/>
      <point x="145.058" y="89.5215" type="curve"/>
      <point x="177.063" y="135.475"/>
      <point x="207.376" y="207.117"/>
      <point x="162.243" y="238.552" type="curve"/>
      <point x="116.906" y="270.129"/>
      <point x="106.871" y="169.709"/>
      <point x="74.8652" y="123.756" type="curve"/>
      <point x="43.4307" y="78.624"/>
      <point x="106.871" y="169.709"/>
      <point x="74.8652" y="123.756" type="curve"/>
      <point x="52.1562" y="61.3711"/>
      <point x="132.695" y="148.726"/>
      <point x="115.137" y="109.774" type="curve" smooth="yes"/>
      <point x="98.5977" y="72.2246"/>
      <point x="168.715" y="181.837"/>
      <point x="129.708" y="150.332" type="curve"/>
      <point x="98.2744" y="105.2"/>
      <point x="199.75" y="214.717"/>
      <point x="167.744" y="168.764" type="curve"/>
      <point x="153.6" y="87.9551"/>
      <point x="201.842" y="135.266"/>
      <point x="133.569" y="71.7383" type="curve" smooth="yes"/>
      <point x="66.457" y="9.31738"/>
      <point x="29.917" y="-28.9648"/>
    </contour>
  </outline>
</glyph>
<glyph name="P" format="1">
  <advance width="418"/>
  <unicode hex="0050"/>
  <outline>
    <contour>
      <point x="228.785" y="64.2246" type="line"/>
      <point x="221.061" y="79.4141"/>
      <point x="183.214" y="99.5039"/>
      <point x="168.177" y="92.2168" type="curve"/>
      <point x="208.452" y="212.305" type="line"/>
      <point x="209.776" y="236.776" type="line"/>
      <point x="275.234" y="268.496" type="line"/>
      <point x="311.501" y="286.07"/>
      <point x="355.275" y="270.873"/>
      <point x="372.85" y="234.606" type="curve"/>
    </contour>
    <contour>
      <point x="192.071" y="-121.088" type="line"/>
      <point x="77.6914" y="77.9297" type="line"/>
      <point x="43.8418" y="101.504"/>
      <point x="64.7188" y="148.384"/>
      <point x="89.1514" y="183.463" type="curve"/>
      <point x="113.87" y="218.953"/>
      <point x="237.794" y="28.8281"/>
      <point x="267.335" y="8.25195" type="curve"/>
    </contour>
  </outline>
</glyph>
<glyph name="Q" format="1">
  <advance width="453"/>
  <unicode hex="0051"/>
  <outline>
    <contour>
      <point x="269.229" y="-55.0264" type="curve"/>
      <point x="225.15" y="-15.2969"/>
      <point x="209.952" y="27.6309"/>
      <point x="221.25" y="56.7539" type="curve"/>
      <point x="246.397" y="92.8594"/>
      <point x="265.314" y="141.965"/>
      <point x="302.241" y="116.246" type="curve"/>
      <point x="371.255" y="107.53"/>
      <point x="412.888" y="55.3223"/>
      <point x="403.886" y="-14.1016" type="curve"/>
      <point x="379.024" y="-49.7969"/>
      <point x="304.925" y="-79.8877"/>
    </contour>
    <contour>
      <point x="176.358" y="107.646" type="curve"/>
      <point x="214.935" y="90.3926"/>
      <point x="247.96" y="109.256"/>
      <point x="264.652" y="147.243" type="curve" smooth="yes"/>
      <point x="282.058" y="185.757"/>
      <point x="268.094" y="220.289"/>
      <point x="230.106" y="236.98" type="curve"/>
      <point x="184.769" y="268.557"/>
      <point x="93.1182" y="239.636"/>
      <point x="61.1123" y="193.684" type="curve"/>
      <point x="11.9609" y="185.113"/>
      <point x="90.5977" y="319.971"/>
      <point x="94.2695" y="291.308" type="curve" smooth="yes"/>
      <point x="99.1025" y="263.75"/>
      <point x="206.316" y="339.637"/>
      <point x="192.028" y="257.123" type="curve"/>
      <point x="160.594" y="211.99"/>
      <point x="129.79" y="140.08"/>
    </contour>
    <contour>
      <point x="204.851" y="135.14" type="curve"/>
      <point x="211.713" y="151.991"/>
      <point x="163.79" y="260.181"/>
      <point x="150.251" y="269.611" type="curve"/>
      <point x="147.789" y="271.325"/>
      <point x="182.604" y="291.695"/>
      <point x="179.366" y="292.732" type="curve"/>
      <point x="170.695" y="296.029"/>
      <point x="202.397" y="205.231"/>
      <point x="195.302" y="200.729" type="curve"/>
      <point x="201.093" y="185.424" type="line"/>
      <point x="213.932" y="169.265"/>
      <point x="237.071" y="165.898"/>
      <point x="255.373" y="171.434" type="curve" smooth="yes"/>
      <point x="278.386" y="175.799"/>
      <point x="289.653" y="184.732"/>
      <point x="278.604" y="187.681" type="curve"/>
      <point x="278.604" y="187.681"/>
      <point x="320.688" y="217.611"/>
      <point x="316.64" y="206.112" type="curve"/>
      <point x="333.929" y="170.436"/>
      <point x="322.78" y="138.16"/>
      <point x="282.465" y="109.087" type="curve"/>
      <point x="246.787" y="91.7979"/>
      <point x="222.14" y="99.4629"/>
    </contour>
  </outline>
</glyph>
<glyph name="R" format="1">
  <advance width="435"/>
  <unicode hex="0052"/>
  <outline>
    <contour>
      <point x="225.475" y="195.576" type="line"/>
      <point x="210.182" y="223.959"/>
      <point x="191.83" y="241.7"/>
      <point x="188.414" y="273.846" type="curve"/>
      <point x="191.4" y="284.257"/>
      <point x="132.753" y="266.51"/>
      <point x="133.614" y="274.744" type="curve"/>
      <point x="136.58" y="298.072" type="line"/>
      <point x="192.08" y="304.303" type="line"/>
      <point x="222.831" y="302.305"/>
      <point x="257.31" y="259.764"/>
      <point x="281.191" y="206.308" type="curve"/>
    </contour>
    <contour>
      <point x="204.434" y="-122.517" type="curve"/>
      <point x="59.7861" y="122.976" type="line"/>
      <point x="40.502" y="136.406"/>
      <point x="68.9531" y="167.041"/>
      <point x="64.0449" y="181.428" type="curve"/>
      <point x="169.778" y="-37.2637" type="line"/>
      <point x="167.313" y="-25.4941"/>
      <point x="204.434" y="-122.517"/>
    </contour>
    <contour>
      <point x="245.354" y="54.3965" type="line"/>
      <point x="222.274" y="75.9404" type="line"/>
      <point x="366.339" y="246.322" type="line"/>
      <point x="389.418" y="224.779" type="line"/>
    </contour>
  </outline>
</glyph>
<glyph name="S" format="1">
  <advance width="338"/>
  <unicode hex="0053"/>
  <outline>
    <contour>
      <point x="102.977" y="78.6318" type="curve"/>
      <point x="76.5244" y="72.2783"/>
      <point x="51.3447" y="35.8281"/>
      <point x="56.7344" y="12.5469" type="curve" smooth="yes"/>
      <point x="71.5488" y="-11.873"/>
      <point x="75.3721" y="12.8906"/>
      <point x="76.2295" y="59.1211" type="curve" smooth="yes"/>
      <point x="66.085" y="106.057"/>
      <point x="93.8271" y="175.59"/>
      <point x="92.2969" y="225.191" type="curve"/>
      <point x="101.906" y="265.293"/>
      <point x="130.03" y="268.308"/>
      <point x="162.179" y="252.965" type="curve"/>
      <point x="176.896" y="274.096"/>
      <point x="164.126" y="249.947"/>
      <point x="182.179" y="237.374" type="curve"/>
      <point x="189.599" y="241.123"/>
      <point x="192.834" y="231.621"/>
      <point x="165.838" y="188.792" type="curve"/>
      <point x="154.101" y="180.12"/>
      <point x="150.333" y="166.935"/>
      <point x="160.43" y="150.744" type="curve" smooth="yes"/>
      <point x="171.589" y="132.643"/>
      <point x="206.188" y="136.486"/>
      <point x="237.702" y="133.951" type="curve"/>
      <point x="279.41" y="160.918"/>
      <point x="296.962" y="186.072"/>
      <point x="279.39" y="178.581" type="curve" smooth="yes"/>
      <point x="255.854" y="171.337"/>
      <point x="204.657" y="121.492"/>
      <point x="151.815" y="80.1211" type="curve" smooth="yes"/>
      <point x="97.2773" y="35.7529"/>
      <point x="61.709" y="28.1738"/>
      <point x="75.9648" y="36.5928" type="curve"/>
      <point x="107.59" y="9.38672"/>
      <point x="147.384" y="11.9707"/>
      <point x="138.096" y="-1.36328" type="curve"/>
      <point x="131.971" y="-35.7207"/>
      <point x="128.818" y="-35.7207"/>
      <point x="125.919" y="-16.2881" type="curve" smooth="yes"/>
      <point x="123.84" y="2.57227"/>
      <point x="109.12" y="65.9531"/>
    </contour>
  </outline>
</glyph>
<glyph name="T" format="1">
  <advance width="375"/>
  <unicode hex="0054"/>
  <outline>
    <contour>
      <point x="304.538" y="97.5039" type="line"/>
      <point x="57.7158" y="114.793" type="line"/>
      <point x="50" y="168.715" type="line"/>
      <point x="296.822" y="151.426" type="line"/>
    </contour>
    <contour>
      <point x="295.902" y="-70.5078" type="line"/>
      <point x="239.107" y="-76.2227" type="line"/>
      <point x="240.251" y="291.418" type="line"/>
      <point x="297.045" y="297.134" type="line"/>
    </contour>
  </outline>
</glyph>
<glyph name="U" format="1">
  <advance width="418"/>
  <unicode hex="0055"/>
  <outline>
    <contour>
      <point x="255.976" y="128.617" type="curve"/>
      <point x="208.792" y="161.48"/>
      <point x="96.5508" y="296.01"/>
      <point x="75.1172" y="265.238" type="curve"/>
      <point x="49" y="191.559" type="line"/>
      <point x="142.744" y="23.9102" type="line"/>
      <point x="206.898" y="116.021" type="line"/>
      <point x="240.199" y="134.052"/>
      <point x="285.883" y="124.123"/>
      <point x="322.281" y="115.836" type="curve" smooth="yes"/>
      <point x="359.127" y="108.129"/>
      <point x="381.325" y="102.137"/>
      <point x="349.748" y="81.2998" type="curve"/>
      <point x="323.631" y="7.62109" type="line"/>
      <point x="340.919" y="-28.0557"/>
      <point x="344.391" y="-84.832"/>
      <point x="308.123" y="-102.406" type="curve"/>
      <point x="272.445" y="-119.695"/>
      <point x="320.242" y="60.2197"/>
    </contour>
  </outline>
</glyph>
<glyph name="V" format="1">
  <advance width="311"/>
  <unicode hex="0056"/>
  <outline>
    <contour>
      <point x="260.475" y="85.1582" type="line"/>
      <point x="106.845" y="288.5" type="line"/>
      <point x="103.416" y="283.576"/>
      <point x="62.1465" y="260.346"/>
      <point x="58.5742" y="255.217" type="curve"/>
      <point x="55.7783" y="250.766"/>
      <point x="198.21" y="45.7793"/>
      <point x="195.066" y="41.2666" type="curve"/>
    </contour>
    <contour>
      <point x="100.607" y="-12.9258" type="curve"/>
      <point x="55" y="211.991" type="line"/>
      <point x="145.175" y="285.188" type="line"/>
      <point x="147.746" y="288.879"/>
      <point x="217.986" y="57.7734"/>
      <point x="220.844" y="61.877" type="curve"/>
      <point x="224.907" y="67.2734"/>
      <point x="100.607" y="-12.9258"/>
    </contour>
  </outline>
</glyph>
<glyph name="W" format="1">
  <advance width="349"/>
  <unicode hex="0057"/>
  <outline>
    <contour>
      <point x="292.844" y="78.8711" type="curve"/>
      <point x="142.367" y="283.499" type="line"/>
      <point x="79.625" y="237.75" type="line"/>
      <point x="203.129" y="-35.0928" type="line"/>
      <point x="195.262" y="-60.3848"/>
      <point x="292.844" y="78.8711"/>
    </contour>
    <contour>
      <point x="144.498" y="-16.5322" type="curve"/>
      <point x="67.5225" y="206.99" type="line"/>
      <point x="46" y="179.843" type="line"/>
      <point x="178.15" y="-7.94531" type="line"/>
      <point x="199.004" y="7.99707"/>
      <point x="144.498" y="-16.5322"/>
    </contour>
    <contour>
      <point x="282.088" y="183.176" type="line"/>
      <point x="134.06" y="389.232" type="line"/>
      <point x="130.631" y="384.309"/>
      <point x="92.0146" y="362.363"/>
      <point x="88.4424" y="357.234" type="curve"/>
      <point x="85.6465" y="352.784"/>
      <point x="225.425" y="146.512"/>
      <point x="222.281" y="141.998" type="curve"/>
    </contour>
    <contour>
      <point x="126.555" y="75.8047" type="line"/>
      <point x="80.127" y="301.293" type="line"/>
      <point x="64.1211" y="299.463" type="line"/>
      <point x="97.5879" y="325.204"/>
      <point x="200.447" y="115.382"/>
      <point x="233.012" y="141.142" type="curve"/>
    </contour>
  </outline>
</glyph>
<glyph name="X" format="1">
  <advance width="375"/>
  <unicode hex="0058"/>
  <outline>
    <contour>
      <point x="167.341" y="124.668" type="line"/>
      <point x="166.229" y="237.333" type="line"/>
      <point x="202.285" y="250.607"/>
      <point x="278.059" y="282.798"/>
      <point x="314.113" y="296.072" type="curve"/>
      <point x="294.071" y="176.117" type="line"/>
    </contour>
    <contour>
      <point x="150.07" y="100.746" type="line"/>
      <point x="45" y="190.655" type="line"/>
      <point x="45.0293" y="195.51"/>
      <point x="86.1865" y="220.43"/>
      <point x="85.8066" y="225.568" type="curve"/>
      <point x="78.791" y="100.609" type="line"/>
    </contour>
    <contour>
      <point x="205.871" y="15.6152" type="line"/>
      <point x="313.725" y="151.598" type="line"/>
      <point x="248.943" y="148.312" type="line"/>
      <point x="146" y="12.043" type="line"/>
    </contour>
  </outline>
</glyph>
<glyph name="Y" format="1">
  <advance width="351"/>
  <unicode hex="0059"/>
  <outline>
    <contour>
      <point x="304.381" y="88.873" type="line"/>
      <point x="247.383" y="83.3008" type="line"/>
      <point x="139.506" y="110.916" type="line"/>
      <point x="196.506" y="116.488" type="line"/>
    </contour>
    <contour>
      <point x="158.641" y="83.3926" type="curve"/>
      <point x="144.74" y="245.316" type="line"/>
      <point x="144.832" y="249.822"/>
      <point x="186.051" y="274.395"/>
      <point x="185.732" y="279.186" type="curve"/>
      <point x="177.344" y="275.889"/>
      <point x="179.49" y="115.361"/>
      <point x="171.101" y="112.064" type="curve"/>
      <point x="141.72" y="99.625"/>
      <point x="158.641" y="83.3926"/>
    </contour>
    <contour>
      <point x="151.32" y="-17.2266" type="line"/>
      <point x="57" y="74.252" type="line"/>
      <point x="102" y="189.113" type="line"/>
      <point x="102.471" y="198.535"/>
      <point x="215.387" y="100.412"/>
      <point x="215.651" y="109.978" type="curve"/>
    </contour>
  </outline>
</glyph>
<glyph name="Z" format="1">
  <advance width="432"/>
  <unicode hex="005A"/>
  <outline>
    <contour>
      <point x="180.482" y="173.021" type="line"/>
      <point x="42" y="130.871" type="line"/>
      <point x="207.068" y="233.843" type="line"/>
      <point x="345.961" y="275.707" type="line"/>
    </contour>
    <contour>
      <point x="352.588" y="-82.6523" type="line"/>
      <point x="120.766" y="-59.791" type="line"/>
      <point x="109.049" y="-11.6133" type="line"/>
      <point x="111.423" y="-10.8291"/>
      <point x="231.845" y="46.9463"/>
      <point x="234.361" y="47.9355" type="curve"/>
    </contour>
    <contour>
      <point x="366.07" y="237.83" type="line"/>
      <point x="350.816" y="56.3799" type="line"/>
      <point x="197.207" y="114.961" type="line"/>
      <point x="215.564" y="309.18" type="line"/>
    </contour>
  </outline>
</glyph>
<glyph name="bracketleft" format="1">
  <advance width="448"/>
  <unicode hex="005B"/>
  <outline>
    <contour>
      <point x="388.508" y="92.8145" type="line"/>
      <point x="351.88" y="143.719" type="line"/>
      <point x="181.868" y="-70.0879" type="line"/>
      <point x="116.049" y="90.418" type="line"/>
      <point x="147.893" y="105.85" type="line"/>
      <point x="129.318" y="144.181" type="line"/>
      <point x="59" y="110.469" type="line"/>
      <point x="180.164" y="-139.567" type="line"/>
    </contour>
  </outline>
</glyph>
<glyph name="backslash" format="1">
  <advance width="238"/>
  <unicode hex="005C"/>
  <outline>
    <contour>
      <point x="58.752" y="311.789" type="line"/>
      <point x="40" y="279.927" type="line"/>
      <point x="178.328" y="-88.7119" type="line"/>
      <point x="197.081" y="-56.8496" type="line"/>
    </contour>
  </outline>
</glyph>
<glyph name="bracketright" format="1">
  <advance width="372"/>
  <unicode hex="005D"/>
  <outline>
    <contour>
      <point x="311.189" y="86.0986" type="line"/>
      <point x="310.667" y="111.855" type="line"/>
      <point x="204.344" y="-71.0879" type="line"/>
      <point x="102.419" y="114.565" type="line"/>
      <point x="70.5742" y="99.1348" type="line"/>
      <point x="52" y="137.465" type="line"/>
      <point x="122.033" y="171.766" type="line"/>
      <point x="243.197" y="-78.2705" type="line"/>
    </contour>
  </outline>
</glyph>
<glyph name="underscore" format="1">
  <advance width="407"/>
  <unicode hex="005F"/>
  <outline>
    <contour>
      <point x="354.965" y="73.5703" type="line"/>
      <point x="223.887" y="184.203" type="line"/>
      <point x="52" y="91.668" type="line"/>
      <point x="183.078" y="-18.9658" type="line"/>
    </contour>
  </outline>
</glyph>
<glyph name="grave" format="1">
  <advance width="173"/>
  <unicode hex="0060"/>
  <outline>
    <contour>
      <point x="111.49" y="121.329" type="line"/>
      <point x="85.1152" y="158.232" type="line"/>
      <point x="53" y="182.627" type="line"/>
      <point x="90.5166" y="144.58" type="line"/>
    </contour>
  </outline>
</glyph>
<glyph name="a" format="1">
  <advance width="256"/>
  <unicode hex="0061"/>
  <outline>
    <contour>
      <point x="144.356" y="159.52" type="curve"/>
      <point x="136.927" y="148.852"/>
      <point x="185.074" y="23.4805"/>
      <point x="202.512" y="11.3359" type="curve"/>
      <point x="225.487" y="-4.66699"/>
      <point x="196.301" y="-10.1123"/>
      <point x="198.25" y="-2.93945" type="curve"/>
      <point x="161.249" y="94.2559" type="line"/>
      <point x="160.374" y="92.123"/>
      <point x="144.356" y="159.52"/>
    </contour>
    <contour>
      <point x="134.016" y="185.256" type="line"/>
      <point x="144.713" y="201.68"/>
      <point x="151.294" y="205.612"/>
      <point x="154.359" y="189.896" type="curve" smooth="yes"/>
      <point x="160.798" y="172.178"/>
      <point x="162.153" y="142.172"/>
      <point x="156.581" y="115.171" type="curve"/>
      <point x="146.437" y="100.605"/>
      <point x="93.2646" y="78.6582"/>
      <point x="76.0469" y="84.5566" type="curve"/>
      <point x="52.791" y="120.977"/>
      <point x="57.1787" y="159.711"/>
      <point x="84.4688" y="180.795" type="curve"/>
      <point x="118.967" y="197.512"/>
      <point x="130.526" y="200.475"/>
      <point x="147.101" y="166.271" type="curve"/>
    </contour>
  </outline>
</glyph>
<glyph name="b" format="1">
  <advance width="220"/>
  <unicode hex="0062"/>
  <outline>
    <contour>
      <point x="45" y="243.461" type="line"/>
      <point x="140.106" y="27.0049" type="line"/>
      <point x="170.256" y="32.084" type="line"/>
      <point x="56.6504" y="259.597" type="line"/>
    </contour>
    <contour>
      <point x="129.648" y="113.478" type="curve"/>
      <point x="129.648" y="113.478"/>
      <point x="153.393" y="71.9414"/>
      <point x="152.982" y="72.2275" type="curve"/>
      <point x="138.552" y="51.5078"/>
      <point x="155.84" y="65.2402"/>
      <point x="138.812" y="77.0996" type="curve"/>
      <point x="124.658" y="86.959"/>
      <point x="89.7598" y="159.723"/>
      <point x="108.334" y="186.391" type="curve"/>
      <point x="127.338" y="213.676"/>
      <point x="115.521" y="94.0693"/>
    </contour>
  </outline>
</glyph>
<glyph name="c" format="1">
  <advance width="300"/>
  <unicode hex="0063"/>
  <outline>
    <contour>
      <point x="116.482" y="99.7441" type="curve"/>
      <point x="126.484" y="96.1045"/>
      <point x="145.454" y="96.7715"/>
      <point x="162.477" y="103.24" type="curve" smooth="yes"/>
      <point x="181.738" y="110.021"/>
      <point x="193.568" y="120.811"/>
      <point x="195.604" y="126.424" type="curve"/>
      <point x="215.709" y="112.422"/>
      <point x="250.592" y="108.111"/>
      <point x="237.304" y="89.0332" type="curve"/>
      <point x="239.59" y="38.8145"/>
      <point x="202.922" y="-9.74805"/>
      <point x="153.524" y="-12.6055" type="curve" smooth="yes"/>
      <point x="114.5" y="-23.0361"/>
      <point x="71.2188" y="-2.84277"/>
      <point x="55.0078" y="37.8799" type="curve"/>
      <point x="54.2168" y="43.3057"/>
      <point x="116.482" y="99.7441"/>
    </contour>
  </outline>
</glyph>
<glyph name="d" format="1">
  <advance width="274"/>
  <unicode hex="0064"/>
  <outline>
    <contour>
      <point x="104.828" y="334.379" type="line"/>
      <point x="212.342" y="110.805" type="line"/>
      <point x="184.923" y="106.305" type="line"/>
      <point x="60.4805" y="343.192" type="line"/>
    </contour>
    <contour>
      <point x="58" y="159.056" type="curve"/>
      <point x="58" y="159.056"/>
      <point x="85.9785" y="93.8535"/>
      <point x="86.3887" y="93.5684" type="curve"/>
      <point x="100.82" y="114.288"/>
      <point x="83.5312" y="100.555"/>
      <point x="100.559" y="88.6963" type="curve"/>
      <point x="114.714" y="78.8379"/>
      <point x="97.8887" y="112.812"/>
      <point x="79.3145" y="86.1426" type="curve"/>
      <point x="60.3105" y="58.8584"/>
      <point x="74.9844" y="182.566"/>
    </contour>
  </outline>
</glyph>
<glyph name="e" format="1">
  <advance width="279"/>
  <unicode hex="0065"/>
  <outline>
    <contour>
      <point x="116.22" y="35.0195" type="curve"/>
      <point x="83.1602" y="103.316" type="line"/>
      <point x="89.5898" y="90.0488"/>
      <point x="93.5684" y="75.627"/>
      <point x="104.183" y="80.7715" type="curve"/>
      <point x="115.093" y="86.0586"/>
      <point x="192.489" y="47.9834"/>
      <point x="186.06" y="61.252" type="curve"/>
      <point x="222.916" y="79.1123" type="line"/>
      <point x="238.205" y="47.5625"/>
      <point x="223.214" y="8.62305"/>
      <point x="191.665" y="-6.66602" type="curve"/>
      <point x="156.872" y="-23.5254"/>
      <point x="131.508" y="3.46973"/>
    </contour>
    <contour>
      <point x="123.702" y="175.076" type="line"/>
      <point x="121.067" y="194.231"/>
      <point x="113.022" y="200.124"/>
      <point x="107.771" y="196.119" type="curve" smooth="yes"/>
      <point x="105.456" y="192.551"/>
      <point x="107.927" y="179.264"/>
      <point x="121.741" y="160.852" type="curve"/>
      <point x="143.282" y="145.85"/>
      <point x="100.558" y="105.656"/>
      <point x="86.8408" y="85.9629" type="curve"/>
      <point x="58.1211" y="98.2285"/>
      <point x="51.7686" y="125.268"/>
      <point x="63.7139" y="154.559" type="curve" smooth="yes"/>
      <point x="80.4932" y="180.135"/>
      <point x="115.624" y="185.42"/>
      <point x="143.735" y="170.531" type="curve"/>
    </contour>
  </outline>
</glyph>
<glyph name="f" format="1">
  <advance width="297"/>
  <unicode hex="0066"/>
  <outline>
    <contour>
      <point x="142.336" y="163.874" type="curve"/>
      <point x="132.311" y="159.016"/>
      <point x="133.181" y="154.18"/>
      <point x="133.609" y="136.795" type="curve"/>
      <point x="119.179" y="116.075"/>
      <point x="81.7959" y="86.1768"/>
      <point x="73.3652" y="74.0732" type="curve"/>
      <point x="53.0762" y="98.9434"/>
      <point x="58.4365" y="135.799"/>
      <point x="84.4463" y="154.945" type="curve"/>
      <point x="71.5225" y="163.947"/>
      <point x="142.336" y="163.874"/>
    </contour>
    <contour>
      <point x="158.604" y="-28.8691" type="line"/>
      <point x="67.1582" y="126.838" type="line"/>
      <point x="163.341" y="105.119" type="line"/>
      <point x="254.785" y="-50.5879" type="line"/>
    </contour>
  </outline>
</glyph>
<glyph name="g" format="1">
  <advance width="344"/>
  <unicode hex="0067"/>
  <outline>
    <contour>
      <point x="199.798" y="20.9375" type="curve"/>
      <point x="204.941" y="10.3232"/>
      <point x="217.752" y="5.4873"/>
      <point x="228.366" y="10.6309" type="curve"/>
      <point x="256.828" y="3.34375"/>
      <point x="272.702" y="16.6914"/>
      <point x="270.988" y="32.7305" type="curve"/>
      <point x="276.846" y="41.1406"/>
      <point x="310.477" y="63.9033"/>
      <point x="280.525" y="84.7637" type="curve"/>
      <point x="274.068" y="68.3604"/>
      <point x="246.315" y="52.2803"/>
      <point x="228.045" y="56.3379" type="curve" smooth="yes"/>
      <point x="215.355" y="68.1289"/>
      <point x="216.632" y="66.123"/>
      <point x="221.447" y="83.6699" type="curve"/>
      <point x="250.168" y="63.666"/>
      <point x="199.798" y="20.9375"/>
    </contour>
    <contour>
      <point x="161.143" y="82.6406" type="curve"/>
      <point x="148.141" y="63.9727"/>
      <point x="149.398" y="2.58594"/>
      <point x="121.703" y="21.875" type="curve"/>
      <point x="93.8037" y="41.3076"/>
      <point x="53.3633" y="48.5742"/>
      <point x="66.3652" y="67.2422" type="curve"/>
      <point x="79.082" y="85.5"/>
      <point x="77.6191" y="147.03"/>
      <point x="105.52" y="127.598" type="curve"/>
      <point x="133.214" y="108.309"/>
      <point x="173.859" y="100.898"/>
    </contour>
    <contour>
      <point x="193.229" y="186.627" type="curve"/>
      <point x="201.802" y="198.936"/>
      <point x="285.14" y="38.8984"/>
      <point x="270.369" y="49.1855" type="curve"/>
      <point x="255.394" y="59.6152"/>
      <point x="201.383" y="37.3379"/>
      <point x="192.811" y="25.0293" type="curve"/>
      <point x="183.951" y="12.3105"/>
      <point x="100.613" y="172.348"/>
      <point x="115.589" y="161.918" type="curve"/>
      <point x="130.359" y="151.63"/>
      <point x="184.37" y="173.908"/>
    </contour>
    <contour>
      <point x="126.734" y="74.6348" type="curve"/>
      <point x="145.367" y="31.0146"/>
      <point x="136.525" y="-6.14453"/>
      <point x="118.555" y="-22.2285" type="curve" smooth="yes"/>
      <point x="94.8672" y="-40.5977"/>
      <point x="73.5469" y="-23.7227"/>
      <point x="60" y="15.9863" type="curve"/>
      <point x="63.4297" y="20.9102"/>
      <point x="101.734" y="41.6348"/>
      <point x="100.248" y="46.9355" type="curve"/>
      <point x="105.392" y="36.3203"/>
      <point x="128.026" y="32.3457"/>
      <point x="138.052" y="37.2031" type="curve"/>
      <point x="154.682" y="27.7998"/>
      <point x="157.828" y="36.4971"/>
      <point x="147.826" y="40.1367" type="curve"/>
      <point x="139.11" y="27.623"/>
      <point x="126.734" y="74.6348"/>
    </contour>
  </outline>
</glyph>
<glyph name="h" format="1">
  <advance width="298"/>
  <unicode hex="0068"/>
  <outline>
    <contour>
      <point x="126.125" y="243.461" type="line"/>
      <point x="219.181" y="28.4336" type="line"/>
      <point x="150.055" y="-106.994" type="line"/>
      <point x="57" y="108.033" type="line"/>
    </contour>
    <contour>
      <point x="198.624" y="208.552" type="curve"/>
      <point x="234.812" y="110.877" type="line"/>
      <point x="231.421" y="69.5488" type="line"/>
      <point x="215.847" y="47.1885"/>
      <point x="162.932" y="133.969"/>
      <point x="186.729" y="117.395" type="curve"/>
      <point x="206.012" y="103.963"/>
      <point x="198.624" y="208.552"/>
    </contour>
  </outline>
</glyph>
<glyph name="i" format="1">
  <advance width="334"/>
  <unicode hex="0069"/>
  <outline>
    <contour>
      <point x="113.492" y="87.8467" type="line"/>
      <point x="176.685" y="-65.5557" type="line"/>
      <point x="282.171" y="49.4375" type="line"/>
      <point x="218.979" y="202.84" type="line"/>
    </contour>
    <contour>
      <point x="67.3721" y="83.9297" type="curve" smooth="yes"/>
      <point x="78.2305" y="78.0215"/>
      <point x="92.1006" y="79.8057"/>
      <point x="97.8945" y="91.0938" type="curve" smooth="yes"/>
      <point x="103.688" y="102.381"/>
      <point x="102.342" y="116.6"/>
      <point x="91.4824" y="122.509" type="curve" smooth="yes"/>
      <point x="80.4805" y="128.713"/>
      <point x="65.9668" y="127.223"/>
      <point x="60.1738" y="115.936" type="curve" smooth="yes"/>
      <point x="54.3799" y="104.647"/>
      <point x="56.3701" y="90.1348"/>
    </contour>
  </outline>
</glyph>
<glyph name="j" format="1">
  <advance width="401"/>
  <unicode hex="006A"/>
  <outline>
    <contour>
      <point x="247.394" y="-7.1084" type="curve"/>
      <point x="270.663" y="16.6406"/>
      <point x="285.148" y="36.7441"/>
      <point x="290.529" y="40.2246" type="curve"/>
      <point x="293.606" y="38.0811"/>
      <point x="336.246" y="53.6553"/>
      <point x="340.418" y="47.3984" type="curve"/>
      <point x="355.706" y="15.8477"/>
      <point x="353.308" y="-8.44629"/>
      <point x="321.463" y="-23.877" type="curve"/>
      <point x="312.92" y="-14.2715"/>
      <point x="247.394" y="-7.1084"/>
    </contour>
    <contour>
      <point x="112.827" y="71.1836" type="curve"/>
      <point x="117.542" y="77.9541"/>
      <point x="201.393" y="-90.9707"/>
      <point x="194.212" y="-85.9697" type="curve"/>
      <point x="187.032" y="-80.9688"/>
      <point x="141.74" y="-100.789"/>
      <point x="137.025" y="-107.559" type="curve"/>
      <point x="132.311" y="-114.328"/>
      <point x="48.2549" y="54.7393"/>
      <point x="55.4346" y="49.7383" type="curve"/>
      <point x="62.6152" y="44.7373"/>
      <point x="108.111" y="64.4141"/>
    </contour>
  </outline>
</glyph>
<glyph name="k" format="1">
  <advance width="319"/>
  <unicode hex="006B"/>
  <outline>
    <contour>
      <point x="110.889" y="243.577" type="line"/>
      <point x="106.363" y="-2.19629" type="line"/>
      <point x="89.8672" y="-35.6309" type="line"/>
      <point x="61" y="205.066" type="line"/>
    </contour>
    <contour>
      <point x="180.494" y="109.662" type="line"/>
      <point x="268.295" y="118.449" type="line"/>
      <point x="204.116" y="112.306" type="line"/>
      <point x="118.424" y="86.209" type="line"/>
    </contour>
    <contour>
      <point x="251.029" y="240.561" type="line"/>
      <point x="228.844" y="150.645" type="line"/>
      <point x="80.6973" y="-23.0762" type="line"/>
      <point x="101.113" y="65.9844" type="line"/>
    </contour>
  </outline>
</glyph>
<glyph name="l" format="1">
  <advance width="347"/>
  <unicode hex="006C"/>
  <outline>
    <contour>
      <point x="57" y="91.8877" type="line"/>
      <point x="150.055" y="-123.139" type="line"/>
      <point x="295.548" y="49.2949" type="line"/>
      <point x="202.492" y="264.321" type="line"/>
    </contour>
  </outline>
</glyph>
<glyph name="m" format="1">
  <advance width="275"/>
  <unicode hex="006D"/>
  <outline>
    <contour>
      <point x="131.981" y="182.131" type="line"/>
      <point x="195.316" y="28.4336" type="line"/>
      <point x="182.781" y="-26.0234" type="line"/>
      <point x="103.694" y="137.426" type="line"/>
    </contour>
    <contour>
      <point x="175.26" y="208.552" type="curve"/>
      <point x="211.447" y="110.877" type="line"/>
      <point x="208.057" y="69.5488" type="line"/>
      <point x="192.482" y="47.1885"/>
      <point x="140.799" y="133.111"/>
      <point x="163.159" y="117.537" type="curve"/>
      <point x="182.443" y="104.106"/>
      <point x="175.26" y="208.552"/>
    </contour>
    <contour>
      <point x="71.0908" y="232.699" type="line"/>
      <point x="65.9473" y="243.313"/>
      <point x="55.1494" y="268.145"/>
      <point x="65.4688" y="273.145" type="curve"/>
      <point x="76.9688" y="278.717"/>
      <point x="48.3877" y="214.988"/>
      <point x="53.5322" y="204.373" type="curve"/>
      <point x="37.958" y="182.013"/>
      <point x="77.6143" y="177.119"/>
      <point x="99.9746" y="161.545" type="curve"/>
      <point x="102.845" y="183.488"/>
      <point x="92.6426" y="197.404"/>
      <point x="78.1074" y="203.214" type="curve"/>
      <point x="53.9297" y="191.497"/>
      <point x="47.5107" y="175.066"/>
      <point x="65.5322" y="139.379" type="curve"/>
    </contour>
  </outline>
</glyph>
<glyph name="n" format="1">
  <advance width="226"/>
  <unicode hex="006E"/>
  <outline>
    <contour>
      <point x="82.2871" y="185.266" type="line"/>
      <point x="145.479" y="31.8633" type="line"/>
      <point x="132.945" y="-22.5938" type="line"/>
      <point x="54" y="140.561" type="line"/>
    </contour>
    <contour>
      <point x="125.219" y="212.123" type="curve"/>
      <point x="161.406" y="114.449" type="line"/>
      <point x="158.016" y="73.1211" type="line"/>
      <point x="142.441" y="50.7598"/>
      <point x="89.5254" y="137.541"/>
      <point x="113.322" y="120.967" type="curve"/>
      <point x="132.606" y="107.535"/>
      <point x="125.219" y="212.123"/>
    </contour>
  </outline>
</glyph>
<glyph name="o" format="1">
  <advance width="345"/>
  <unicode hex="006F"/>
  <outline>
    <contour>
      <point x="168.565" y="14.2041" type="curve"/>
      <point x="150.42" y="-11.8496"/>
      <point x="154.719" y="-8.61133"/>
      <point x="122.511" y="13.8203" type="curve"/>
      <point x="95.8574" y="25.3535"/>
      <point x="109.473" y="55.9492"/>
      <point x="138.233" y="87.1465" type="curve" smooth="yes"/>
      <point x="167.146" y="118.281"/>
      <point x="203.772" y="143.834"/>
      <point x="230.426" y="132.301" type="curve"/>
      <point x="262.634" y="109.869"/>
      <point x="236.665" y="172.88"/>
      <point x="268.462" y="150.732" type="curve"/>
      <point x="316.102" y="96.4561"/>
      <point x="238.875" y="102.953"/>
      <point x="239.123" y="65.5176" type="curve" smooth="yes"/>
      <point x="239.781" y="27.7969"/>
      <point x="200.571" y="6.15625"/>
    </contour>
    <contour>
      <point x="199.688" y="114.057" type="curve"/>
      <point x="206.547" y="141.902"/>
      <point x="199.488" y="170.523"/>
      <point x="167.538" y="180.239" type="curve" smooth="yes"/>
      <point x="136.179" y="190.241"/>
      <point x="110.365" y="163.621"/>
      <point x="103.507" y="135.774" type="curve"/>
      <point x="91.3613" y="118.337"/>
      <point x="47.4229" y="75.6826"/>
      <point x="68.7578" y="60.8223" type="curve"/>
      <point x="74.8047" y="77.5127"/>
      <point x="45.3555" y="145.315"/>
      <point x="98.2402" y="145.744" type="curve" smooth="yes"/>
      <point x="151.125" y="146.173"/>
      <point x="146.538" y="162.67"/>
      <point x="183.161" y="116.262" type="curve"/>
      <point x="204.496" y="101.402"/>
      <point x="187.544" y="96.6191"/>
    </contour>
  </outline>
</glyph>
<glyph name="p" format="1">
  <advance width="260"/>
  <unicode hex="0070"/>
  <outline>
    <contour>
      <point x="55" y="112.609" type="line"/>
      <point x="170.873" y="-124.021" type="line"/>
      <point x="198.383" y="-119.236" type="line"/>
      <point x="99.5801" y="104.287" type="line"/>
    </contour>
    <contour>
      <point x="183.332" y="113.478" type="curve"/>
      <point x="183.332" y="113.478"/>
      <point x="206.934" y="72.2363"/>
      <point x="206.523" y="72.5225" type="curve"/>
      <point x="192.092" y="51.8027"/>
      <point x="209.381" y="65.5352"/>
      <point x="192.354" y="77.3945" type="curve"/>
      <point x="178.199" y="87.2539"/>
      <point x="143.443" y="159.723"/>
      <point x="162.018" y="186.391" type="curve"/>
      <point x="181.021" y="213.676"/>
      <point x="166.348" y="89.9668"/>
    </contour>
  </outline>
</glyph>
<glyph name="q" format="1">
  <advance width="233"/>
  <unicode hex="0071"/>
  <outline>
    <contour>
      <point x="63.5078" y="202.152" type="line"/>
      <point x="190.272" y="-40.6504" type="line"/>
      <point x="160.166" y="-46.9785" type="line"/>
      <point x="51" y="184.785" type="line"/>
    </contour>
    <contour>
      <point x="62.875" y="159.261" type="curve"/>
      <point x="62.875" y="159.261"/>
      <point x="90.8535" y="94.0586"/>
      <point x="91.2637" y="93.7734" type="curve"/>
      <point x="105.694" y="114.493"/>
      <point x="88.4062" y="100.761"/>
      <point x="105.434" y="88.9014" type="curve"/>
      <point x="119.588" y="79.043"/>
      <point x="102.764" y="113.017"/>
      <point x="84.1885" y="86.3477" type="curve"/>
      <point x="65.1855" y="59.0635"/>
      <point x="79.8594" y="182.771"/>
    </contour>
  </outline>
</glyph>
<glyph name="r" format="1">
  <advance width="297"/>
  <unicode hex="0072"/>
  <outline>
    <contour>
      <point x="51.0352" y="165.019" type="line"/>
      <point x="49.1152" y="162.699"/>
      <point x="127.209" y="-4.73828"/>
      <point x="125.78" y="-6.78906" type="curve"/>
      <point x="113.493" y="-24.4316"/>
      <point x="157.739" y="-21.8594"/>
      <point x="174.356" y="-33.4326" type="curve"/>
      <point x="188.717" y="-43.4346"/>
      <point x="133.226" y="127.148"/>
      <point x="148.129" y="147.234" type="curve"/>
    </contour>
    <contour>
      <point x="234.345" y="135.524" type="line"/>
      <point x="225.2" y="154.395"/>
      <point x="222.516" y="183.521"/>
      <point x="232.836" y="188.521" type="curve"/>
      <point x="163.538" y="153.526" type="line"/>
      <point x="139.359" y="141.811"/>
      <point x="128.897" y="108.043"/>
      <point x="147.214" y="72.5" type="curve"/>
    </contour>
  </outline>
</glyph>
<glyph name="s" format="1">
  <advance width="191"/>
  <unicode hex="0073"/>
  <outline>
    <contour>
      <point x="122.164" y="147.566" type="curve"/>
      <point x="101.49" y="163.57"/>
      <point x="75.459" y="163.355"/>
      <point x="56" y="142.779" type="curve"/>
      <point x="66.668" y="135.35"/>
      <point x="94.5039" y="100.443"/>
      <point x="99.3613" y="107.418" type="curve"/>
      <point x="113.94" y="119.375"/>
      <point x="120.36" y="121.511"/>
      <point x="107.873" y="131.137" type="curve"/>
      <point x="89.8867" y="150.367"/>
      <point x="122.164" y="147.566"/>
    </contour>
  </outline>
</glyph>
<glyph name="t" format="1">
  <advance width="298"/>
  <unicode hex="0074"/>
  <outline>
    <contour>
      <point x="240.535" y="100.388" type="line"/>
      <point x="236.023" y="93.8223"/>
      <point x="228.706" y="94.7012"/>
      <point x="227.05" y="102.887" type="curve"/>
      <point x="232.589" y="99.0293"/>
      <point x="199.64" y="68.4941"/>
      <point x="189.781" y="54.3398" type="curve"/>
      <point x="205.068" y="22.79"/>
      <point x="191.836" y="-45.5605"/>
      <point x="223.387" y="-30.2715" type="curve"/>
    </contour>
    <contour>
      <point x="51" y="176.574" type="line"/>
      <point x="118.869" y="5.01855" type="line"/>
      <point x="177.816" y="14.7031" type="line"/>
      <point x="76.6562" y="124.461" type="line"/>
    </contour>
  </outline>
</glyph>
<glyph name="u" format="1">
  <advance width="228"/>
  <unicode hex="0075"/>
  <outline>
    <contour>
      <point x="142.824" y="30.6045" type="line"/>
      <point x="79.6309" y="184.006" type="line"/>
      <point x="93.1758" y="239.633" type="line"/>
      <point x="172.12" y="76.4766" type="line"/>
    </contour>
    <contour>
      <point x="100.045" y="4.18359" type="curve"/>
      <point x="64" y="101.563" type="line"/>
      <point x="68.1055" y="143.917" type="line"/>
      <point x="83.6797" y="166.277"/>
      <point x="136.451" y="79.792"/>
      <point x="112.654" y="96.3662" type="curve"/>
      <point x="93.3711" y="109.797"/>
      <point x="100.045" y="4.18359"/>
    </contour>
  </outline>
</glyph>
<glyph name="v" format="1">
  <advance width="350"/>
  <unicode hex="0076"/>
  <outline>
    <contour>
      <point x="173.77" y="223.701" type="line"/>
      <point x="297.988" y="69.584" type="line"/>
      <point x="247.459" y="30.6924" type="line"/>
      <point x="49" y="122.139" type="line"/>
    </contour>
    <contour>
      <point x="206.04" y="112.708" type="line"/>
      <point x="224.484" y="141.999" type="line"/>
      <point x="290.072" y="52.5537" type="line"/>
      <point x="269.836" y="57.1523" type="line"/>
    </contour>
  </outline>
</glyph>
<glyph name="w" format="1">
  <advance width="480"/>
  <unicode hex="0077"/>
  <outline>
    <contour>
      <point x="227.449" y="212.609" type="line"/>
      <point x="318.307" y="41.0352" type="line"/>
      <point x="295.349" y="14.8867" type="line"/>
      <point x="249.389" y="214.339" type="line"/>
    </contour>
    <contour>
      <point x="356.078" y="276.71" type="line"/>
      <point x="387.846" y="299.857" type="line"/>
      <point x="410.668" y="89.084" type="line"/>
      <point x="348.34" y="-15.4043" type="line"/>
    </contour>
    <contour>
      <point x="45" y="189.293" type="line"/>
      <point x="180.078" y="30.7471" type="line"/>
      <point x="214.133" y="65.0801" type="line"/>
      <point x="114.647" y="238.703" type="line"/>
    </contour>
    <contour>
      <point x="205.221" y="275.566" type="line"/>
      <point x="234.243" y="297.143" type="line"/>
      <point x="257.36" y="86.5117" type="line"/>
      <point x="197.186" y="-16.6895" type="line"/>
    </contour>
  </outline>
</glyph>
<glyph name="x" format="1">
  <advance width="377"/>
  <unicode hex="0078"/>
  <outline>
    <contour>
      <point x="191.625" y="179.232" type="line"/>
      <point x="196.211" y="-72.6992" type="line"/>
      <point x="133.263" y="-79.7012" type="line"/>
      <point x="133.689" y="174.66" type="line"/>
    </contour>
    <contour>
      <point x="123.717" y="168.83" type="line"/>
      <point x="129.15" y="75.1289" type="line"/>
      <point x="71.5352" y="69.9863" type="line"/>
      <point x="62" y="160.972" type="line"/>
    </contour>
    <contour>
      <point x="168.831" y="118.769" type="line"/>
      <point x="329.475" y="79.0137" type="line"/>
      <point x="305.709" y="44.7227" type="line"/>
      <point x="149.463" y="87.334" type="line"/>
    </contour>
  </outline>
</glyph>
<glyph name="y" format="1">
  <advance width="384"/>
  <unicode hex="0079"/>
  <outline>
    <contour>
      <point x="220.642" y="230.074" type="line"/>
      <point x="220.056" y="235.357"/>
      <point x="338.884" y="96.2686"/>
      <point x="332.729" y="100.555" type="curve"/>
      <point x="323.703" y="106.842"/>
      <point x="270.201" y="95.6133"/>
      <point x="245.582" y="78.6387" type="curve"/>
      <point x="44" y="169.516" type="line"/>
    </contour>
    <contour>
      <point x="79.4961" y="176.148" type="line"/>
      <point x="134.176" y="182.292" type="line"/>
      <point x="263.794" y="-26.9756" type="line"/>
      <point x="251.168" y="-22.541" type="line"/>
    </contour>
  </outline>
</glyph>
<glyph name="z" format="1">
  <advance width="296"/>
  <unicode hex="007A"/>
  <outline>
    <contour>
      <point x="131.742" y="130.997" type="line"/>
      <point x="74.5264" y="148.384" type="line"/>
      <point x="68" y="34.8125" type="line"/>
      <point x="158.222" y="-50.6855" type="line"/>
      <point x="112.814" y="-72.6895" type="line"/>
      <point x="96.2393" y="-38.4863" type="line"/>
      <point x="112.33" y="89.0977" type="line"/>
      <point x="96.1934" y="123.148" type="line"/>
    </contour>
    <contour>
      <point x="82.4932" y="158.965" type="line"/>
      <point x="77.8027" y="247.553" type="line"/>
      <point x="105.522" y="224.851" type="line"/>
      <point x="110.213" y="136.264" type="line"/>
    </contour>
    <contour>
      <point x="78.3828" y="18.8906" type="line"/>
      <point x="130.107" y="68.1855" type="line"/>
      <point x="250.795" y="60.8584" type="line"/>
      <point x="199.069" y="11.5645" type="line"/>
    </contour>
  </outline>
</glyph>
<glyph name="braceleft" format="1">
  <advance width="376"/>
  <unicode hex="007B"/>
  <outline>
    <contour>
      <point x="217.978" y="247.328" type="line"/>
      <point x="195.156" y="247.9" type="line" smooth="yes"/>
      <point x="116.424" y="265.475"/>
      <point x="77.4766" y="112.719"/>
      <point x="61" y="100.614" type="curve"/>
      <point x="70.6357" y="61.0107" type="line"/>
      <point x="131.213" y="5.56836"/>
      <point x="137.953" y="121.778"/>
      <point x="164.182" y="91.8867" type="curve"/>
      <point x="164.182" y="91.8867"/>
      <point x="144.135" y="76.7129"/>
      <point x="183.043" y="52.9648" type="curve"/>
      <point x="196.311" y="59.3945"/>
      <point x="173.629" y="91.7344"/>
      <point x="218.824" y="55.0127" type="curve"/>
      <point x="218.824" y="55.0127"/>
      <point x="198.624" y="39.4023"/>
      <point x="237.532" y="15.6543" type="curve"/>
      <point x="252.975" y="-16.5479"/>
      <point x="251.996" y="-5.36914"/>
      <point x="322.453" y="-13.8281" type="curve"/>
      <point x="322.453" y="-13.8281"/>
      <point x="296.519" y="16.2061"/>
      <point x="335.427" y="-7.54199" type="curve"/>
      <point x="335.427" y="-7.54199"/>
      <point x="277.943" y="54.5371"/>
      <point x="316.852" y="30.7891" type="curve"/>
      <point x="316.852" y="30.7891"/>
      <point x="264.971" y="48.25"/>
      <point x="303.879" y="24.502" type="curve"/>
      <point x="292.969" y="19.2158"/>
      <point x="242.135" y="46.6533"/>
      <point x="275.568" y="34.0859" type="curve"/>
      <point x="261.28" y="63.5713"/>
      <point x="204.004" y="130.484"/>
      <point x="213.427" y="92.4473" type="curve"/>
      <point x="242.912" y="106.736"/>
      <point x="185.365" y="163.687"/>
      <point x="209.985" y="169.424" type="curve"/>
      <point x="204.881" y="179.835"/>
      <point x="171.368" y="216.615"/>
      <point x="220.006" y="197.582" type="curve"/>
      <point x="220.006" y="197.582"/>
      <point x="194.072" y="227.617"/>
      <point x="232.98" y="203.869" type="curve"/>
    </contour>
  </outline>
</glyph>
<glyph name="bar" format="1">
  <advance width="334"/>
  <unicode hex="007C"/>
  <outline>
    <contour>
      <point x="168.631" y="316.807" type="line"/>
      <point x="277.6" y="67.2539" type="line"/>
      <point x="165.97" y="-118.262" type="line"/>
      <point x="57" y="131.29" type="line"/>
    </contour>
  </outline>
</glyph>
<glyph name="braceright" format="1">
  <advance width="282"/>
  <unicode hex="007D"/>
  <outline>
    <contour>
      <point x="42" y="232.469" type="line"/>
      <point x="64.8203" y="231.897" type="line" smooth="yes"/>
      <point x="143.554" y="214.322"/>
      <point x="85.3408" y="135.58"/>
      <point x="127.536" y="82.6113" type="curve"/>
      <point x="136.762" y="43.293" type="line"/>
      <point x="85.3281" y="65.8652"/>
      <point x="210.612" y="139.21"/>
      <point x="187.526" y="173.615" type="curve"/>
      <point x="187.526" y="173.615"/>
      <point x="242.151" y="106.434"/>
      <point x="206.387" y="134.694" type="curve"/>
      <point x="193.118" y="128.264"/>
      <point x="212.086" y="92.5918"/>
      <point x="182.607" y="107.879" type="curve"/>
      <point x="182.607" y="107.879"/>
      <point x="237.67" y="40.5449"/>
      <point x="201.906" y="68.8066" type="curve"/>
      <point x="217.611" y="36.7314"/>
      <point x="239.737" y="-29.0879"/>
      <point x="172.424" y="-16.1152" type="curve"/>
      <point x="172.424" y="-16.1152"/>
      <point x="195.215" y="-50.6621"/>
      <point x="159.449" y="-22.4014" type="curve"/>
      <point x="159.449" y="-22.4014"/>
      <point x="176.64" y="-12.332"/>
      <point x="140.875" y="15.9297" type="curve"/>
      <point x="140.875" y="15.9297"/>
      <point x="189.613" y="-6.04492"/>
      <point x="153.848" y="22.2168" type="curve"/>
      <point x="164.758" y="27.5029"/>
      <point x="205.018" y="10.8877"/>
      <point x="163.869" y="50.375" type="curve"/>
      <point x="149.581" y="79.8594"/>
      <point x="162.85" y="92.7627"/>
      <point x="156.57" y="135.312" type="curve"/>
      <point x="127.085" y="121.023"/>
      <point x="148.34" y="127.966"/>
      <point x="98.2861" y="185.713" type="curve"/>
      <point x="93.2783" y="196.171"/>
      <point x="115.471" y="171.75"/>
      <point x="69.9766" y="195.296" type="curve"/>
      <point x="69.9766" y="195.296"/>
      <point x="92.7676" y="160.748"/>
      <point x="57.0029" y="189.01" type="curve"/>
    </contour>
  </outline>
</glyph>
<glyph name="dieresis" format="1">
  <advance width="178"/>
  <unicode hex="00A8"/>
  <outline>
    <contour>
      <point x="73.6445" y="104.438" type="curve" smooth="yes"/>
      <point x="82.7891" y="102.066"/>
      <point x="93.3096" y="105.505"/>
      <point x="96.7441" y="115.649" type="curve" smooth="yes"/>
      <point x="100.179" y="125.794"/>
      <point x="98.0537" y="136.358"/>
      <point x="88.9092" y="138.729" type="curve" smooth="yes"/>
      <point x="79.9082" y="140.805"/>
      <point x="68.8877" y="137.367"/>
      <point x="65.4531" y="127.223" type="curve" smooth="yes"/>
      <point x="62.0186" y="117.078"/>
      <point x="64.6426" y="106.514"/>
    </contour>
    <contour>
      <point x="86.6895" y="153.16" type="curve" smooth="yes"/>
      <point x="95.834" y="150.789"/>
      <point x="106.354" y="154.228"/>
      <point x="109.789" y="164.372" type="curve" smooth="yes"/>
      <point x="113.225" y="174.518"/>
      <point x="111.1" y="185.082"/>
      <point x="101.955" y="187.452" type="curve" smooth="yes"/>
      <point x="92.9531" y="189.527"/>
      <point x="81.9326" y="186.09"/>
      <point x="78.498" y="175.945" type="curve" smooth="yes"/>
      <point x="75.0635" y="165.801"/>
      <point x="77.6885" y="155.236"/>
    </contour>
  </outline>
</glyph>
<glyph name="acute" format="1">
  <advance width="229"/>
  <unicode hex="00B4"/>
  <outline>
    <contour>
      <point x="118.858" y="168.156" type="line"/>
      <point x="164.705" y="138.801" type="line"/>
      <point x="115.988" y="130.942" type="line"/>
      <point x="59" y="161.441" type="line"/>
    </contour>
  </outline>
</glyph>
<glyph name="circumflex" format="1">
  <advance width="216"/>
  <unicode hex="02C6"/>
  <outline>
    <contour>
      <point x="63" y="115.811" type="line"/>
      <point x="151.323" y="150.051" type="line"/>
      <point x="146.337" y="111.796" type="line"/>
      <point x="72.0889" y="83.0273" type="line"/>
    </contour>
  </outline>
</glyph>
<glyph name="endash" format="1">
  <advance width="213"/>
  <unicode hex="2013"/>
  <outline>
    <contour>
      <point x="155.111" y="156.529" type="line"/>
      <point x="127.678" y="181.641" type="line"/>
      <point x="58" y="56.0469" type="line"/>
      <point x="85.4336" y="30.9355" type="line"/>
    </contour>
  </outline>
</glyph>
<glyph name="emdash" format="1">
  <advance width="210"/>
  <unicode hex="2014"/>
  <outline>
    <contour>
      <point x="160.945" y="249.974" type="line"/>
      <point x="133.512" y="275.086" type="line"/>
      <point x="60" y="56.0469" type="line"/>
      <point x="87.4336" y="30.9355" type="line"/>
    </contour>
  </outline>
</glyph>
<glyph name="quoteleft" format="1">
  <advance width="189"/>
  <unicode hex="2018"/>
  <outline>
    <contour>
      <point x="99.9893" y="175.984" type="curve"/>
      <point x="94.8457" y="168.6"/>
      <point x="56.3311" y="139.576"/>
      <point x="66.793" y="132.289" type="curve"/>
      <point x="69.2549" y="130.574"/>
      <point x="82.0781" y="40.3828"/>
      <point x="84.166" y="40.7559" type="curve"/>
      <point x="124.17" y="71.3984" type="line"/>
      <point x="121.615" y="51.5469"/>
      <point x="105.562" y="183.984"/>
    </contour>
  </outline>
</glyph>
<glyph name="quoteright" format="1">
  <advance width="187"/>
  <unicode hex="2019"/>
  <outline>
    <contour>
      <point x="89.1797" y="10.9473" type="curve"/>
      <point x="94.3242" y="18.332"/>
      <point x="132.839" y="47.3555"/>
      <point x="122.377" y="54.6426" type="curve"/>
      <point x="119.914" y="56.3564"/>
      <point x="107.092" y="146.549"/>
      <point x="105.003" y="146.176" type="curve"/>
      <point x="65" y="115.533" type="line"/>
      <point x="67.5547" y="135.385"/>
      <point x="83.6074" y="2.94629"/>
    </contour>
  </outline>
</glyph>
<glyph name="quotedblleft" format="1">
  <advance width="195"/>
  <unicode hex="201C"/>
  <outline>
    <contour>
      <point x="100.385" y="231.423" type="curve"/>
      <point x="95.2412" y="224.037"/>
      <point x="62.3281" y="197.729"/>
      <point x="72.791" y="190.443" type="curve"/>
      <point x="75.252" y="188.729"/>
      <point x="88.0762" y="98.5352"/>
      <point x="90.1641" y="98.9092" type="curve"/>
      <point x="130.167" y="129.552" type="line"/>
      <point x="127.612" y="109.699"/>
      <point x="105.957" y="239.424"/>
    </contour>
    <contour>
      <point x="95.6348" y="177.271" type="curve"/>
      <point x="90.4912" y="169.885"/>
      <point x="57.5781" y="143.577"/>
      <point x="68.041" y="136.29" type="curve"/>
      <point x="70.502" y="134.576"/>
      <point x="78.0186" y="41.8115"/>
      <point x="80.1064" y="42.1855" type="curve"/>
      <point x="119.814" y="72.6846" type="line"/>
      <point x="117.261" y="52.832"/>
      <point x="101.207" y="185.271"/>
    </contour>
  </outline>
</glyph>
<glyph name="quotedblright" format="1">
  <advance width="196"/>
  <unicode hex="201D"/>
  <outline>
    <contour>
      <point x="92.7822" y="10.9473" type="curve"/>
      <point x="97.9258" y="18.332"/>
      <point x="130.839" y="44.6406"/>
      <point x="120.377" y="51.9277" type="curve"/>
      <point x="117.914" y="53.6416"/>
      <point x="105.091" y="143.834"/>
      <point x="103.003" y="143.461" type="curve"/>
      <point x="63" y="112.818" type="line"/>
      <point x="65.5547" y="132.67"/>
      <point x="87.21" y="2.94629"/>
    </contour>
    <contour>
      <point x="97.5322" y="65.0996" type="curve"/>
      <point x="102.676" y="72.4844"/>
      <point x="135.589" y="98.793"/>
      <point x="125.127" y="106.08" type="curve"/>
      <point x="122.664" y="107.795"/>
      <point x="115.148" y="200.559"/>
      <point x="113.061" y="200.186" type="curve"/>
      <point x="73.3516" y="169.686" type="line"/>
      <point x="75.9062" y="189.537"/>
      <point x="91.96" y="57.0986"/>
    </contour>
  </outline>
</glyph>
